<?xml version="1.0" encoding="UTF-8" standalone="no"?>
<!-- Created with Inkscape (http://www.inkscape.org/) -->

<svg
   width="16"
   height="16"
   viewBox="0 0 16 16"
   version="1.1"
   id="svg1"
   inkscape:version="1.3 (0e150ed6c4, 2023-07-21)"
   sodipodi:docname="tmh_icon.svg"
   xmlns:inkscape="http://www.inkscape.org/namespaces/inkscape"
   xmlns:sodipodi="http://sodipodi.sourceforge.net/DTD/sodipodi-0.dtd"
   xmlns="http://www.w3.org/2000/svg"
   xmlns:svg="http://www.w3.org/2000/svg">
  <sodipodi:namedview
     id="namedview1"
     pagecolor="#505050"
     bordercolor="#ffffff"
     borderopacity="1"
     inkscape:showpageshadow="0"
     inkscape:pageopacity="0"
     inkscape:pagecheckerboard="1"
     inkscape:deskcolor="#d1d1d1"
     inkscape:document-units="mm"
     inkscape:zoom="8"
     inkscape:cx="11.8125"
     inkscape:cy="9.875"
     inkscape:window-width="1366"
     inkscape:window-height="701"
     inkscape:window-x="0"
     inkscape:window-y="0"
     inkscape:window-maximized="1"
     inkscape:current-layer="layer1" />
  <defs
     id="defs1" />
  <g
     inkscape:label="Camada 1"
     inkscape:groupmode="layer"
     id="layer1">
    <circle
       style="fill:#8500d3;fill-opacity:1;stroke:none;stroke-width:145.919;stroke-linecap:round;stroke-linejoin:round;stroke-miterlimit:0"
       id="path1"
       cx="-8"
       cy="8"
       transform="scale(-1,1)"
       r="8"
       sodipodi:insensitive="true" />
    <path
       style="font-size:20.4643px;font-family:'TeX Gyre Chorus';-inkscape-font-specification:'TeX Gyre Chorus';fill:#f9f9f9;stroke-width:193.364;stroke-linecap:round;stroke-linejoin:round;stroke-miterlimit:0"
       d="m 11.004224,10.94686 0.04093,-0.511608 c -1.5552869,0.920894 -2.2101445,1.268787 -2.4966447,1.268787 -0.2660359,0 -0.5934647,-0.532072 -0.5934647,-0.961822 0,-0.286501 0.3478931,-1.8622517 0.8799649,-4.0110033 0.2865002,-0.020464 0.4911432,-0.020464 0.5934647,-0.020464 l 0.8185718,-0.020464 c 0.08186,0 0.2865,-0.020464 0.613929,-0.061393 L 11.638618,6.0354275 H 9.0191872 L 9.8377592,2.7202109 C 9.4489375,2.9248539 9.2852231,2.9862468 8.9782586,3.1294969 8.8350085,3.2113541 8.6712941,3.272747 8.5075797,3.3546042 8.4257225,3.3955328 8.323401,3.4364614 8.2210795,3.47739 L 7.6480791,6.0354275 C 7.4639004,6.0558918 7.3411146,6.0558918 7.2797217,6.0558918 H 6.7885785 c 0,0 -0.1432501,0 -0.3069645,0.020464 C 6.2565067,6.2196062 6.2360424,6.2196062 5.8881493,6.5061064 5.8267564,6.547035 5.7244349,6.6288922 5.5811848,6.7312137 H 6.072328 7.0136858 7.4639004 C 6.3792925,11.274288 6.3792925,11.274288 6.3792925,11.908682 c 0,0.654857 0.4297503,1.371108 0.818572,1.371108 0.4502146,0 1.841787,-0.859501 3.8063595,-2.33293 z"
       id="text1"
       aria-label="t" />
  </g>
</svg>
