<svg width="360" height="800" viewBox="0 0 360 800" fill="none" xmlns="http://www.w3.org/2000/svg">
<rect width="360" height="800" fill="white"/>
<path d="M50.0156 75.0156V76.9844H37.8281L43.4062 82.6094L42 84.0156L33.9844 76L42 67.9844L43.4062 69.3906L37.8281 75.0156H50.0156Z" fill="black"/>
<path d="M75.248 67.32C77.024 67.32 78.576 67.664 79.904 68.352C81.248 69.024 82.28 70 83 71.28C83.736 72.544 84.104 74.024 84.104 75.72C84.104 77.416 83.736 78.888 83 80.136C82.28 81.384 81.248 82.344 79.904 83.016C78.576 83.672 77.024 84 75.248 84H69.8V67.32H75.248ZM75.248 81.768C77.2 81.768 78.696 81.24 79.736 80.184C80.776 79.128 81.296 77.64 81.296 75.72C81.296 73.784 80.776 72.272 79.736 71.184C78.696 70.096 77.2 69.552 75.248 69.552H72.536V81.768H75.248ZM92.5516 84.216C91.3036 84.216 90.1756 83.936 89.1676 83.376C88.1596 82.8 87.3676 82 86.7916 80.976C86.2156 79.936 85.9276 78.736 85.9276 77.376C85.9276 76.032 86.2236 74.84 86.8156 73.8C87.4076 72.76 88.2156 71.96 89.2396 71.4C90.2636 70.84 91.4076 70.56 92.6716 70.56C93.9356 70.56 95.0796 70.84 96.1036 71.4C97.1276 71.96 97.9356 72.76 98.5276 73.8C99.1196 74.84 99.4156 76.032 99.4156 77.376C99.4156 78.72 99.1116 79.912 98.5036 80.952C97.8956 81.992 97.0636 82.8 96.0076 83.376C94.9676 83.936 93.8156 84.216 92.5516 84.216ZM92.5516 81.84C93.2556 81.84 93.9116 81.672 94.5196 81.336C95.1436 81 95.6476 80.496 96.0316 79.824C96.4156 79.152 96.6076 78.336 96.6076 77.376C96.6076 76.416 96.4236 75.608 96.0556 74.952C95.6876 74.28 95.1996 73.776 94.5916 73.44C93.9836 73.104 93.3276 72.936 92.6236 72.936C91.9196 72.936 91.2636 73.104 90.6556 73.44C90.0636 73.776 89.5916 74.28 89.2396 74.952C88.8876 75.608 88.7116 76.416 88.7116 77.376C88.7116 78.8 89.0716 79.904 89.7916 80.688C90.5276 81.456 91.4476 81.84 92.5516 81.84ZM108.792 70.56C109.832 70.56 110.76 70.776 111.576 71.208C112.408 71.64 113.056 72.28 113.52 73.128C113.984 73.976 114.216 75 114.216 76.2V84H111.504V76.608C111.504 75.424 111.208 74.52 110.616 73.896C110.024 73.256 109.216 72.936 108.192 72.936C107.168 72.936 106.352 73.256 105.744 73.896C105.152 74.52 104.856 75.424 104.856 76.608V84H102.12V70.776H104.856V72.288C105.304 71.744 105.872 71.32 106.56 71.016C107.264 70.712 108.008 70.56 108.792 70.56ZM116.794 77.328C116.794 76 117.066 74.824 117.61 73.8C118.17 72.776 118.922 71.984 119.866 71.424C120.826 70.848 121.882 70.56 123.034 70.56C124.074 70.56 124.978 70.768 125.746 71.184C126.53 71.584 127.154 72.088 127.618 72.696V70.776H130.378V84H127.618V82.032C127.154 82.656 126.522 83.176 125.722 83.592C124.922 84.008 124.01 84.216 122.986 84.216C121.85 84.216 120.81 83.928 119.866 83.352C118.922 82.76 118.17 81.944 117.61 80.904C117.066 79.848 116.794 78.656 116.794 77.328ZM127.618 77.376C127.618 76.464 127.426 75.672 127.042 75C126.674 74.328 126.186 73.816 125.578 73.464C124.97 73.112 124.314 72.936 123.61 72.936C122.906 72.936 122.25 73.112 121.642 73.464C121.034 73.8 120.538 74.304 120.154 74.976C119.786 75.632 119.602 76.416 119.602 77.328C119.602 78.24 119.786 79.04 120.154 79.728C120.538 80.416 121.034 80.944 121.642 81.312C122.266 81.664 122.922 81.84 123.61 81.84C124.314 81.84 124.97 81.664 125.578 81.312C126.186 80.96 126.674 80.448 127.042 79.776C127.426 79.088 127.618 78.288 127.618 77.376ZM137.164 73.008V80.328C137.164 80.824 137.276 81.184 137.5 81.408C137.74 81.616 138.14 81.72 138.7 81.72H140.38V84H138.22C136.988 84 136.044 83.712 135.388 83.136C134.732 82.56 134.404 81.624 134.404 80.328V73.008H132.844V70.776H134.404V67.488H137.164V70.776H140.38V73.008H137.164ZM155.022 77.064C155.022 77.56 154.99 78.008 154.926 78.408H144.822C144.902 79.464 145.294 80.312 145.998 80.952C146.702 81.592 147.566 81.912 148.59 81.912C150.062 81.912 151.102 81.296 151.71 80.064H154.662C154.262 81.28 153.534 82.28 152.478 83.064C151.438 83.832 150.142 84.216 148.59 84.216C147.326 84.216 146.19 83.936 145.182 83.376C144.19 82.8 143.406 82 142.83 80.976C142.27 79.936 141.99 78.736 141.99 77.376C141.99 76.016 142.262 74.824 142.806 73.8C143.366 72.76 144.142 71.96 145.134 71.4C146.142 70.84 147.294 70.56 148.59 70.56C149.838 70.56 150.95 70.832 151.926 71.376C152.902 71.92 153.662 72.688 154.206 73.68C154.75 74.656 155.022 75.784 155.022 77.064ZM152.166 76.2C152.15 75.192 151.79 74.384 151.086 73.776C150.382 73.168 149.51 72.864 148.47 72.864C147.526 72.864 146.718 73.168 146.046 73.776C145.374 74.368 144.974 75.176 144.846 76.2H152.166Z" fill="black"/>
<rect x="121" y="157" width="117" height="42" fill="#E3E3E3"/>
<path d="M167.552 170.544H159.128V176.016C159.496 175.504 160.04 175.088 160.76 174.768C161.48 174.432 162.256 174.264 163.088 174.264C164.416 174.264 165.496 174.544 166.328 175.104C167.16 175.648 167.752 176.36 168.104 177.24C168.472 178.104 168.656 179.024 168.656 180C168.656 181.152 168.44 182.184 168.008 183.096C167.576 184.008 166.912 184.728 166.016 185.256C165.136 185.784 164.04 186.048 162.728 186.048C161.048 186.048 159.688 185.616 158.648 184.752C157.608 183.888 156.976 182.736 156.752 181.296H158.888C159.096 182.208 159.536 182.92 160.208 183.432C160.88 183.944 161.728 184.2 162.752 184.2C164.016 184.2 164.968 183.824 165.608 183.072C166.248 182.304 166.568 181.296 166.568 180.048C166.568 178.8 166.248 177.84 165.608 177.168C164.968 176.48 164.024 176.136 162.776 176.136C161.928 176.136 161.184 176.344 160.544 176.76C159.92 177.16 159.464 177.712 159.176 178.416H157.112V168.624H167.552V170.544ZM174.174 182.976L171.486 189.432H170.022L171.774 182.976H174.174ZM176.316 177.144C176.316 174.392 176.764 172.248 177.66 170.712C178.556 169.16 180.124 168.384 182.364 168.384C184.588 168.384 186.148 169.16 187.044 170.712C187.94 172.248 188.388 174.392 188.388 177.144C188.388 179.944 187.94 182.12 187.044 183.672C186.148 185.224 184.588 186 182.364 186C180.124 186 178.556 185.224 177.66 183.672C176.764 182.12 176.316 179.944 176.316 177.144ZM186.228 177.144C186.228 175.752 186.132 174.576 185.94 173.616C185.764 172.64 185.388 171.856 184.812 171.264C184.252 170.672 183.436 170.376 182.364 170.376C181.276 170.376 180.444 170.672 179.868 171.264C179.308 171.856 178.932 172.64 178.74 173.616C178.564 174.576 178.476 175.752 178.476 177.144C178.476 178.584 178.564 179.792 178.74 180.768C178.932 181.744 179.308 182.528 179.868 183.12C180.444 183.712 181.276 184.008 182.364 184.008C183.436 184.008 184.252 183.712 184.812 183.12C185.388 182.528 185.764 181.744 185.94 180.768C186.132 179.792 186.228 178.584 186.228 177.144ZM191.386 177.144C191.386 174.392 191.834 172.248 192.73 170.712C193.626 169.16 195.194 168.384 197.434 168.384C199.658 168.384 201.218 169.16 202.114 170.712C203.01 172.248 203.458 174.392 203.458 177.144C203.458 179.944 203.01 182.12 202.114 183.672C201.218 185.224 199.658 186 197.434 186C195.194 186 193.626 185.224 192.73 183.672C191.834 182.12 191.386 179.944 191.386 177.144ZM201.298 177.144C201.298 175.752 201.202 174.576 201.01 173.616C200.834 172.64 200.458 171.856 199.882 171.264C199.322 170.672 198.506 170.376 197.434 170.376C196.346 170.376 195.514 170.672 194.938 171.264C194.378 171.856 194.002 172.64 193.81 173.616C193.634 174.576 193.546 175.752 193.546 177.144C193.546 178.584 193.634 179.792 193.81 180.768C194.002 181.744 194.378 182.528 194.938 183.12C195.514 183.712 196.346 184.008 197.434 184.008C198.506 184.008 199.322 183.712 199.882 183.12C200.458 182.528 200.834 181.744 201.01 180.768C201.202 179.792 201.298 178.584 201.298 177.144Z" fill="black"/>
<path d="M303 183C303 191.837 295.837 199 287 199H238V157H287C295.837 157 303 164.163 303 173V183Z" fill="#C4C4C4"/>
<path d="M276.328 178.152H271.216V183.336H269.176V178.152H264.088V176.304H269.176V171.096H271.216V176.304H276.328V178.152Z" fill="black"/>
<path d="M56 173C56 164.163 63.1634 157 72 157H121V199H72C63.1634 199 56 191.837 56 183V173Z" fill="#C4C4C4"/>
<path d="M91.968 176.28V178.128H82.392V176.28H91.968Z" fill="black"/>
<rect x="89" y="693" width="180" height="50" rx="8" fill="#C4C4C4"/>
<path d="M154.704 712.848C155.92 712.848 156.971 713.077 157.856 713.536C158.752 713.984 159.435 714.629 159.904 715.472C160.384 716.315 160.624 717.307 160.624 718.448C160.624 719.589 160.384 720.581 159.904 721.424C159.435 722.256 158.752 722.896 157.856 723.344C156.971 723.781 155.92 724 154.704 724H151.232V712.848H154.704ZM154.704 722.8C156.144 722.8 157.243 722.421 158 721.664C158.757 720.896 159.136 719.824 159.136 718.448C159.136 717.061 158.752 715.979 157.984 715.2C157.227 714.421 156.133 714.032 154.704 714.032H152.688V722.8H154.704ZM166.369 724.144C165.547 724.144 164.801 723.957 164.129 723.584C163.467 723.211 162.945 722.683 162.561 722C162.187 721.307 162.001 720.507 162.001 719.6C162.001 718.704 162.193 717.915 162.577 717.232C162.971 716.539 163.505 716.011 164.177 715.648C164.849 715.275 165.601 715.088 166.433 715.088C167.265 715.088 168.017 715.275 168.689 715.648C169.361 716.011 169.889 716.533 170.273 717.216C170.667 717.899 170.865 718.693 170.865 719.6C170.865 720.507 170.662 721.307 170.257 722C169.862 722.683 169.323 723.211 168.641 723.584C167.958 723.957 167.201 724.144 166.369 724.144ZM166.369 722.864C166.891 722.864 167.382 722.741 167.841 722.496C168.299 722.251 168.667 721.883 168.945 721.392C169.233 720.901 169.377 720.304 169.377 719.6C169.377 718.896 169.238 718.299 168.961 717.808C168.683 717.317 168.321 716.955 167.873 716.72C167.425 716.475 166.939 716.352 166.417 716.352C165.883 716.352 165.393 716.475 164.945 716.72C164.507 716.955 164.155 717.317 163.889 717.808C163.622 718.299 163.489 718.896 163.489 719.6C163.489 720.315 163.617 720.917 163.873 721.408C164.139 721.899 164.491 722.267 164.929 722.512C165.366 722.747 165.846 722.864 166.369 722.864ZM177.051 715.072C178.118 715.072 178.982 715.397 179.643 716.048C180.304 716.688 180.635 717.616 180.635 718.832V724H179.195V719.04C179.195 718.165 178.976 717.499 178.539 717.04C178.102 716.571 177.504 716.336 176.747 716.336C175.979 716.336 175.366 716.576 174.907 717.056C174.459 717.536 174.235 718.235 174.235 719.152V724H172.779V715.232H174.235V716.48C174.523 716.032 174.912 715.685 175.403 715.44C175.904 715.195 176.454 715.072 177.051 715.072ZM182.469 719.584C182.469 718.688 182.651 717.904 183.013 717.232C183.376 716.549 183.872 716.021 184.501 715.648C185.141 715.275 185.851 715.088 186.629 715.088C187.397 715.088 188.064 715.253 188.629 715.584C189.195 715.915 189.616 716.331 189.893 716.832V715.232H191.365V724H189.893V722.368C189.605 722.88 189.173 723.307 188.597 723.648C188.032 723.979 187.371 724.144 186.613 724.144C185.835 724.144 185.131 723.952 184.501 723.568C183.872 723.184 183.376 722.645 183.013 721.952C182.651 721.259 182.469 720.469 182.469 719.584ZM189.893 719.6C189.893 718.939 189.76 718.363 189.493 717.872C189.227 717.381 188.864 717.008 188.405 716.752C187.957 716.485 187.461 716.352 186.917 716.352C186.373 716.352 185.877 716.48 185.429 716.736C184.981 716.992 184.624 717.365 184.357 717.856C184.091 718.347 183.957 718.923 183.957 719.584C183.957 720.256 184.091 720.843 184.357 721.344C184.624 721.835 184.981 722.213 185.429 722.48C185.877 722.736 186.373 722.864 186.917 722.864C187.461 722.864 187.957 722.736 188.405 722.48C188.864 722.213 189.227 721.835 189.493 721.344C189.76 720.843 189.893 720.261 189.893 719.6ZM195.602 716.432V721.6C195.602 722.027 195.692 722.331 195.874 722.512C196.055 722.683 196.37 722.768 196.818 722.768H197.89V724H196.578C195.767 724 195.159 723.813 194.754 723.44C194.348 723.067 194.146 722.453 194.146 721.6V716.432H193.01V715.232H194.146V713.024H195.602V715.232H197.89V716.432H195.602ZM207.654 719.28C207.654 719.557 207.638 719.851 207.606 720.16H200.598C200.651 721.024 200.945 721.701 201.478 722.192C202.022 722.672 202.678 722.912 203.446 722.912C204.075 722.912 204.598 722.768 205.014 722.48C205.441 722.181 205.739 721.787 205.91 721.296H207.478C207.243 722.139 206.774 722.827 206.07 723.36C205.366 723.883 204.491 724.144 203.446 724.144C202.614 724.144 201.867 723.957 201.206 723.584C200.555 723.211 200.043 722.683 199.67 722C199.297 721.307 199.11 720.507 199.11 719.6C199.11 718.693 199.291 717.899 199.654 717.216C200.017 716.533 200.523 716.011 201.174 715.648C201.835 715.275 202.593 715.088 203.446 715.088C204.278 715.088 205.014 715.269 205.654 715.632C206.294 715.995 206.785 716.496 207.126 717.136C207.478 717.765 207.654 718.48 207.654 719.28ZM206.15 718.976C206.15 718.421 206.027 717.947 205.782 717.552C205.537 717.147 205.201 716.843 204.774 716.64C204.358 716.427 203.894 716.32 203.382 716.32C202.646 716.32 202.017 716.555 201.494 717.024C200.982 717.493 200.689 718.144 200.614 718.976H206.15Z" fill="black"/>
<path d="M24 275C24 270.582 27.5817 267 32 267H128V309H32C27.5817 309 24 305.418 24 301V275Z" fill="#7C7C7C"/>
<path d="M31.536 241.848V243.032H26.688V246.792H30.624V247.976H26.688V253H25.232V241.848H31.536ZM34.7505 245.656C35.0065 245.155 35.3692 244.765 35.8385 244.488C36.3185 244.211 36.8998 244.072 37.5825 244.072V245.576H37.1985C35.5665 245.576 34.7505 246.461 34.7505 248.232V253H33.2945V244.232H34.7505V245.656ZM47.2633 248.28C47.2633 248.557 47.2473 248.851 47.2153 249.16H40.2073C40.2606 250.024 40.5539 250.701 41.0873 251.192C41.6313 251.672 42.2873 251.912 43.0553 251.912C43.6846 251.912 44.2073 251.768 44.6233 251.48C45.0499 251.181 45.3486 250.787 45.5193 250.296H47.0873C46.8526 251.139 46.3833 251.827 45.6793 252.36C44.9753 252.883 44.1006 253.144 43.0553 253.144C42.2233 253.144 41.4766 252.957 40.8153 252.584C40.1646 252.211 39.6526 251.683 39.2793 251C38.9059 250.307 38.7193 249.507 38.7193 248.6C38.7193 247.693 38.9006 246.899 39.2633 246.216C39.6259 245.533 40.1326 245.011 40.7833 244.648C41.4446 244.275 42.2019 244.088 43.0553 244.088C43.8873 244.088 44.6233 244.269 45.2633 244.632C45.9033 244.995 46.3939 245.496 46.7353 246.136C47.0873 246.765 47.2633 247.48 47.2633 248.28ZM45.7593 247.976C45.7593 247.421 45.6366 246.947 45.3913 246.552C45.1459 246.147 44.8099 245.843 44.3833 245.64C43.9673 245.427 43.5033 245.32 42.9913 245.32C42.2553 245.32 41.6259 245.555 41.1033 246.024C40.5913 246.493 40.2979 247.144 40.2233 247.976H45.7593ZM48.6411 248.584C48.6411 247.688 48.8225 246.904 49.1851 246.232C49.5478 245.549 50.0438 245.021 50.6731 244.648C51.3131 244.275 52.0278 244.088 52.8171 244.088C53.5745 244.088 54.2358 244.259 54.8011 244.6C55.3771 244.931 55.7985 245.341 56.0651 245.832V244.232H57.5371V257.16H56.0651V251.384C55.7878 251.875 55.3611 252.291 54.7851 252.632C54.2091 252.973 53.5371 253.144 52.7691 253.144C52.0011 253.144 51.3025 252.952 50.6731 252.568C50.0438 252.184 49.5478 251.645 49.1851 250.952C48.8225 250.259 48.6411 249.469 48.6411 248.584ZM56.0651 248.6C56.0651 247.939 55.9318 247.363 55.6651 246.872C55.3985 246.381 55.0358 246.008 54.5771 245.752C54.1291 245.485 53.6331 245.352 53.0891 245.352C52.5451 245.352 52.0491 245.48 51.6011 245.736C51.1531 245.992 50.7958 246.365 50.5291 246.856C50.2625 247.347 50.1291 247.923 50.1291 248.584C50.1291 249.256 50.2625 249.843 50.5291 250.344C50.7958 250.835 51.1531 251.213 51.6011 251.48C52.0491 251.736 52.5451 251.864 53.0891 251.864C53.6331 251.864 54.1291 251.736 54.5771 251.48C55.0358 251.213 55.3985 250.835 55.6651 250.344C55.9318 249.843 56.0651 249.261 56.0651 248.6ZM67.7736 244.232V253H66.3176V251.704C66.0403 252.152 65.651 252.504 65.1496 252.76C64.659 253.005 64.115 253.128 63.5176 253.128C62.835 253.128 62.2216 252.989 61.6776 252.712C61.1336 252.424 60.7016 251.997 60.3816 251.432C60.0723 250.867 59.9176 250.179 59.9176 249.368V244.232H61.3576V249.176C61.3576 250.04 61.5763 250.707 62.0136 251.176C62.451 251.635 63.0483 251.864 63.8056 251.864C64.5843 251.864 65.1976 251.624 65.6456 251.144C66.0936 250.664 66.3176 249.965 66.3176 249.048V244.232H67.7736ZM78.232 248.28C78.232 248.557 78.216 248.851 78.184 249.16H71.176C71.2293 250.024 71.5227 250.701 72.056 251.192C72.6 251.672 73.256 251.912 74.024 251.912C74.6533 251.912 75.176 251.768 75.592 251.48C76.0187 251.181 76.3173 250.787 76.488 250.296H78.056C77.8213 251.139 77.352 251.827 76.648 252.36C75.944 252.883 75.0693 253.144 74.024 253.144C73.192 253.144 72.4453 252.957 71.784 252.584C71.1333 252.211 70.6213 251.683 70.248 251C69.8747 250.307 69.688 249.507 69.688 248.6C69.688 247.693 69.8693 246.899 70.232 246.216C70.5947 245.533 71.1013 245.011 71.752 244.648C72.4133 244.275 73.1707 244.088 74.024 244.088C74.856 244.088 75.592 244.269 76.232 244.632C76.872 244.995 77.3627 245.496 77.704 246.136C78.056 246.765 78.232 247.48 78.232 248.28ZM76.728 247.976C76.728 247.421 76.6053 246.947 76.36 246.552C76.1147 246.147 75.7787 245.843 75.352 245.64C74.936 245.427 74.472 245.32 73.96 245.32C73.224 245.32 72.5947 245.555 72.072 246.024C71.56 246.493 71.2667 247.144 71.192 247.976H76.728ZM84.4259 244.072C85.4925 244.072 86.3565 244.397 87.0179 245.048C87.6792 245.688 88.0099 246.616 88.0099 247.832V253H86.5699V248.04C86.5699 247.165 86.3512 246.499 85.9139 246.04C85.4765 245.571 84.8792 245.336 84.1219 245.336C83.3539 245.336 82.7405 245.576 82.2819 246.056C81.8339 246.536 81.6099 247.235 81.6099 248.152V253H80.1539V244.232H81.6099V245.48C81.8979 245.032 82.2872 244.685 82.7779 244.44C83.2792 244.195 83.8285 244.072 84.4259 244.072ZM89.8443 248.6C89.8443 247.693 90.0256 246.904 90.3883 246.232C90.7509 245.549 91.2523 245.021 91.8923 244.648C92.5429 244.275 93.2843 244.088 94.1163 244.088C95.1936 244.088 96.0789 244.349 96.7723 244.872C97.4763 245.395 97.9403 246.12 98.1643 247.048H96.5963C96.4469 246.515 96.1536 246.093 95.7163 245.784C95.2896 245.475 94.7563 245.32 94.1163 245.32C93.2843 245.32 92.6123 245.608 92.1003 246.184C91.5883 246.749 91.3323 247.555 91.3323 248.6C91.3323 249.656 91.5883 250.472 92.1003 251.048C92.6123 251.624 93.2843 251.912 94.1163 251.912C94.7563 251.912 95.2896 251.763 95.7163 251.464C96.1429 251.165 96.4363 250.739 96.5963 250.184H98.1643C97.9296 251.08 97.4603 251.8 96.7563 252.344C96.0523 252.877 95.1723 253.144 94.1163 253.144C93.2843 253.144 92.5429 252.957 91.8923 252.584C91.2523 252.211 90.7509 251.683 90.3883 251C90.0256 250.317 89.8443 249.517 89.8443 248.6ZM107.659 244.232L102.379 257.128H100.875L102.603 252.904L99.067 244.232H100.683L103.435 251.336L106.155 244.232H107.659Z" fill="black"/>
<path d="M63.824 140.52H58.96L58.064 143H56.528L60.56 131.912H62.24L66.256 143H64.72L63.824 140.52ZM63.408 139.336L61.392 133.704L59.376 139.336H63.408ZM78.5573 134.072C79.2399 134.072 79.8479 134.216 80.3813 134.504C80.9146 134.781 81.3359 135.203 81.6453 135.768C81.9546 136.333 82.1093 137.021 82.1093 137.832V143H80.6693V138.04C80.6693 137.165 80.4506 136.499 80.0133 136.04C79.5866 135.571 79.0053 135.336 78.2693 135.336C77.5119 135.336 76.9093 135.581 76.4613 136.072C76.0133 136.552 75.7893 137.251 75.7893 138.168V143H74.3493V138.04C74.3493 137.165 74.1306 136.499 73.6933 136.04C73.2666 135.571 72.6853 135.336 71.9493 135.336C71.1919 135.336 70.5893 135.581 70.1413 136.072C69.6933 136.552 69.4693 137.251 69.4693 138.168V143H68.0133V134.232H69.4693V135.496C69.7573 135.037 70.1413 134.685 70.6213 134.44C71.1119 134.195 71.6506 134.072 72.2373 134.072C72.9733 134.072 73.6239 134.237 74.1893 134.568C74.7546 134.899 75.1759 135.384 75.4533 136.024C75.6986 135.405 76.1039 134.925 76.6693 134.584C77.2346 134.243 77.8639 134.072 78.5573 134.072ZM88.3216 143.144C87.5003 143.144 86.7536 142.957 86.0816 142.584C85.4203 142.211 84.8976 141.683 84.5136 141C84.1403 140.307 83.9536 139.507 83.9536 138.6C83.9536 137.704 84.1456 136.915 84.5296 136.232C84.9243 135.539 85.4576 135.011 86.1296 134.648C86.8016 134.275 87.5536 134.088 88.3856 134.088C89.2176 134.088 89.9696 134.275 90.6416 134.648C91.3136 135.011 91.8416 135.533 92.2256 136.216C92.6203 136.899 92.8176 137.693 92.8176 138.6C92.8176 139.507 92.615 140.307 92.2096 141C91.815 141.683 91.2763 142.211 90.5936 142.584C89.911 142.957 89.1536 143.144 88.3216 143.144ZM88.3216 141.864C88.8443 141.864 89.335 141.741 89.7936 141.496C90.2523 141.251 90.6203 140.883 90.8976 140.392C91.1856 139.901 91.3296 139.304 91.3296 138.6C91.3296 137.896 91.191 137.299 90.9136 136.808C90.6363 136.317 90.2736 135.955 89.8256 135.72C89.3776 135.475 88.8923 135.352 88.3696 135.352C87.8363 135.352 87.3456 135.475 86.8976 135.72C86.4603 135.955 86.1083 136.317 85.8416 136.808C85.575 137.299 85.4416 137.896 85.4416 138.6C85.4416 139.315 85.5696 139.917 85.8256 140.408C86.0923 140.899 86.4443 141.267 86.8816 141.512C87.319 141.747 87.799 141.864 88.3216 141.864ZM102.508 134.232V143H101.052V141.704C100.775 142.152 100.385 142.504 99.884 142.76C99.3933 143.005 98.8493 143.128 98.252 143.128C97.5693 143.128 96.956 142.989 96.412 142.712C95.868 142.424 95.436 141.997 95.116 141.432C94.8067 140.867 94.652 140.179 94.652 139.368V134.232H96.092V139.176C96.092 140.04 96.3107 140.707 96.748 141.176C97.1853 141.635 97.7827 141.864 98.54 141.864C99.3187 141.864 99.932 141.624 100.38 141.144C100.828 140.664 101.052 139.965 101.052 139.048V134.232H102.508ZM109.238 134.072C110.305 134.072 111.169 134.397 111.83 135.048C112.492 135.688 112.822 136.616 112.822 137.832V143H111.382V138.04C111.382 137.165 111.164 136.499 110.726 136.04C110.289 135.571 109.692 135.336 108.934 135.336C108.166 135.336 107.553 135.576 107.094 136.056C106.646 136.536 106.422 137.235 106.422 138.152V143H104.966V134.232H106.422V135.48C106.71 135.032 107.1 134.685 107.59 134.44C108.092 134.195 108.641 134.072 109.238 134.072ZM116.977 135.432V140.6C116.977 141.027 117.067 141.331 117.249 141.512C117.43 141.683 117.745 141.768 118.193 141.768H119.265V143H117.953C117.142 143 116.534 142.813 116.129 142.44C115.723 142.067 115.521 141.453 115.521 140.6V135.432H114.385V134.232H115.521V132.024H116.977V134.232H119.265V135.432H116.977Z" fill="black"/>
<path d="M61.056 294.144C60.2347 294.144 59.488 293.957 58.816 293.584C58.1547 293.211 57.632 292.683 57.248 292C56.8747 291.307 56.688 290.507 56.688 289.6C56.688 288.704 56.88 287.915 57.264 287.232C57.6587 286.539 58.192 286.011 58.864 285.648C59.536 285.275 60.288 285.088 61.12 285.088C61.952 285.088 62.704 285.275 63.376 285.648C64.048 286.011 64.576 286.533 64.96 287.216C65.3547 287.899 65.552 288.693 65.552 289.6C65.552 290.507 65.3493 291.307 64.944 292C64.5493 292.683 64.0107 293.211 63.328 293.584C62.6453 293.957 61.888 294.144 61.056 294.144ZM61.056 292.864C61.5787 292.864 62.0693 292.741 62.528 292.496C62.9867 292.251 63.3547 291.883 63.632 291.392C63.92 290.901 64.064 290.304 64.064 289.6C64.064 288.896 63.9253 288.299 63.648 287.808C63.3707 287.317 63.008 286.955 62.56 286.72C62.112 286.475 61.6267 286.352 61.104 286.352C60.5707 286.352 60.08 286.475 59.632 286.72C59.1947 286.955 58.8427 287.317 58.576 287.808C58.3093 288.299 58.176 288.896 58.176 289.6C58.176 290.315 58.304 290.917 58.56 291.408C58.8267 291.899 59.1787 292.267 59.616 292.512C60.0533 292.747 60.5333 292.864 61.056 292.864ZM71.7384 285.072C72.805 285.072 73.669 285.397 74.3304 286.048C74.9917 286.688 75.3224 287.616 75.3224 288.832V294H73.8824V289.04C73.8824 288.165 73.6637 287.499 73.2264 287.04C72.789 286.571 72.1917 286.336 71.4344 286.336C70.6664 286.336 70.053 286.576 69.5944 287.056C69.1464 287.536 68.9224 288.235 68.9224 289.152V294H67.4664V285.232H68.9224V286.48C69.2104 286.032 69.5997 285.685 70.0904 285.44C70.5917 285.195 71.141 285.072 71.7384 285.072ZM77.1568 289.6C77.1568 288.693 77.3381 287.904 77.7008 287.232C78.0634 286.549 78.5648 286.021 79.2048 285.648C79.8554 285.275 80.5968 285.088 81.4288 285.088C82.5061 285.088 83.3914 285.349 84.0848 285.872C84.7888 286.395 85.2528 287.12 85.4768 288.048H83.9088C83.7594 287.515 83.4661 287.093 83.0288 286.784C82.6021 286.475 82.0688 286.32 81.4288 286.32C80.5968 286.32 79.9248 286.608 79.4128 287.184C78.9008 287.749 78.6448 288.555 78.6448 289.6C78.6448 290.656 78.9008 291.472 79.4128 292.048C79.9248 292.624 80.5968 292.912 81.4288 292.912C82.0688 292.912 82.6021 292.763 83.0288 292.464C83.4554 292.165 83.7488 291.739 83.9088 291.184H85.4768C85.2421 292.08 84.7728 292.8 84.0688 293.344C83.3648 293.877 82.4848 294.144 81.4288 294.144C80.5968 294.144 79.8554 293.957 79.2048 293.584C78.5648 293.211 78.0634 292.683 77.7008 292C77.3381 291.317 77.1568 290.517 77.1568 289.6ZM95.4195 289.28C95.4195 289.557 95.4035 289.851 95.3715 290.16H88.3635C88.4168 291.024 88.7102 291.701 89.2435 292.192C89.7875 292.672 90.4435 292.912 91.2115 292.912C91.8408 292.912 92.3635 292.768 92.7795 292.48C93.2062 292.181 93.5048 291.787 93.6755 291.296H95.2435C95.0088 292.139 94.5395 292.827 93.8355 293.36C93.1315 293.883 92.2568 294.144 91.2115 294.144C90.3795 294.144 89.6328 293.957 88.9715 293.584C88.3208 293.211 87.8088 292.683 87.4355 292C87.0622 291.307 86.8755 290.507 86.8755 289.6C86.8755 288.693 87.0568 287.899 87.4195 287.216C87.7822 286.533 88.2888 286.011 88.9395 285.648C89.6008 285.275 90.3582 285.088 91.2115 285.088C92.0435 285.088 92.7795 285.269 93.4195 285.632C94.0595 285.995 94.5502 286.496 94.8915 287.136C95.2435 287.765 95.4195 288.48 95.4195 289.28ZM93.9155 288.976C93.9155 288.421 93.7928 287.947 93.5475 287.552C93.3022 287.147 92.9662 286.843 92.5395 286.64C92.1235 286.427 91.6595 286.32 91.1475 286.32C90.4115 286.32 89.7822 286.555 89.2595 287.024C88.7475 287.493 88.4542 288.144 88.3795 288.976H93.9155Z" fill="white"/>
<path d="M232 267H328C332.418 267 336 270.582 336 275V301C336 305.418 332.418 309 328 309H232V267Z" fill="#C4C4C4"/>
<rect x="128" y="267" width="104" height="42" fill="#C4C4C4"/>
<path d="M164.776 285.072C165.459 285.072 166.067 285.216 166.6 285.504C167.133 285.781 167.555 286.203 167.864 286.768C168.173 287.333 168.328 288.021 168.328 288.832V294H166.888V289.04C166.888 288.165 166.669 287.499 166.232 287.04C165.805 286.571 165.224 286.336 164.488 286.336C163.731 286.336 163.128 286.581 162.68 287.072C162.232 287.552 162.008 288.251 162.008 289.168V294H160.568V289.04C160.568 288.165 160.349 287.499 159.912 287.04C159.485 286.571 158.904 286.336 158.168 286.336C157.411 286.336 156.808 286.581 156.36 287.072C155.912 287.552 155.688 288.251 155.688 289.168V294H154.232V285.232H155.688V286.496C155.976 286.037 156.36 285.685 156.84 285.44C157.331 285.195 157.869 285.072 158.456 285.072C159.192 285.072 159.843 285.237 160.408 285.568C160.973 285.899 161.395 286.384 161.672 287.024C161.917 286.405 162.323 285.925 162.888 285.584C163.453 285.243 164.083 285.072 164.776 285.072ZM174.54 294.144C173.719 294.144 172.972 293.957 172.3 293.584C171.639 293.211 171.116 292.683 170.732 292C170.359 291.307 170.172 290.507 170.172 289.6C170.172 288.704 170.364 287.915 170.748 287.232C171.143 286.539 171.676 286.011 172.348 285.648C173.02 285.275 173.772 285.088 174.604 285.088C175.436 285.088 176.188 285.275 176.86 285.648C177.532 286.011 178.06 286.533 178.444 287.216C178.839 287.899 179.036 288.693 179.036 289.6C179.036 290.507 178.834 291.307 178.428 292C178.034 292.683 177.495 293.211 176.812 293.584C176.13 293.957 175.372 294.144 174.54 294.144ZM174.54 292.864C175.063 292.864 175.554 292.741 176.012 292.496C176.471 292.251 176.839 291.883 177.116 291.392C177.404 290.901 177.548 290.304 177.548 289.6C177.548 288.896 177.41 288.299 177.132 287.808C176.855 287.317 176.492 286.955 176.044 286.72C175.596 286.475 175.111 286.352 174.588 286.352C174.055 286.352 173.564 286.475 173.116 286.72C172.679 286.955 172.327 287.317 172.06 287.808C171.794 288.299 171.66 288.896 171.66 289.6C171.66 290.315 171.788 290.917 172.044 291.408C172.311 291.899 172.663 292.267 173.1 292.512C173.538 292.747 174.018 292.864 174.54 292.864ZM185.223 285.072C186.289 285.072 187.153 285.397 187.815 286.048C188.476 286.688 188.807 287.616 188.807 288.832V294H187.367V289.04C187.367 288.165 187.148 287.499 186.711 287.04C186.273 286.571 185.676 286.336 184.919 286.336C184.151 286.336 183.537 286.576 183.079 287.056C182.631 287.536 182.407 288.235 182.407 289.152V294H180.951V285.232H182.407V286.48C182.695 286.032 183.084 285.685 183.575 285.44C184.076 285.195 184.625 285.072 185.223 285.072ZM192.961 286.432V291.6C192.961 292.027 193.052 292.331 193.233 292.512C193.414 292.683 193.729 292.768 194.177 292.768H195.249V294H193.937C193.126 294 192.518 293.813 192.113 293.44C191.708 293.067 191.505 292.453 191.505 291.6V286.432H190.369V285.232H191.505V283.024H192.961V285.232H195.249V286.432H192.961ZM201.365 285.072C202.027 285.072 202.624 285.216 203.157 285.504C203.691 285.781 204.107 286.203 204.405 286.768C204.715 287.333 204.869 288.021 204.869 288.832V294H203.429V289.04C203.429 288.165 203.211 287.499 202.773 287.04C202.336 286.571 201.739 286.336 200.981 286.336C200.213 286.336 199.6 286.576 199.141 287.056C198.693 287.536 198.469 288.235 198.469 289.152V294H197.013V282.16H198.469V286.48C198.757 286.032 199.152 285.685 199.653 285.44C200.165 285.195 200.736 285.072 201.365 285.072Z" fill="black"/>
<path d="M274.784 285.232L269.504 298.128H268L269.728 293.904L266.192 285.232H267.808L270.56 292.336L273.28 285.232H274.784ZM284.248 289.28C284.248 289.557 284.232 289.851 284.2 290.16H277.192C277.245 291.024 277.538 291.701 278.072 292.192C278.616 292.672 279.272 292.912 280.04 292.912C280.669 292.912 281.192 292.768 281.608 292.48C282.034 292.181 282.333 291.787 282.504 291.296H284.072C283.837 292.139 283.368 292.827 282.664 293.36C281.96 293.883 281.085 294.144 280.04 294.144C279.208 294.144 278.461 293.957 277.8 293.584C277.149 293.211 276.637 292.683 276.264 292C275.89 291.307 275.704 290.507 275.704 289.6C275.704 288.693 275.885 287.899 276.248 287.216C276.61 286.533 277.117 286.011 277.768 285.648C278.429 285.275 279.186 285.088 280.04 285.088C280.872 285.088 281.608 285.269 282.248 285.632C282.888 285.995 283.378 286.496 283.72 287.136C284.072 287.765 284.248 288.48 284.248 289.28ZM282.744 288.976C282.744 288.421 282.621 287.947 282.376 287.552C282.13 287.147 281.794 286.843 281.368 286.64C280.952 286.427 280.488 286.32 279.976 286.32C279.24 286.32 278.61 286.555 278.088 287.024C277.576 287.493 277.282 288.144 277.208 288.976H282.744ZM285.626 289.584C285.626 288.688 285.807 287.904 286.17 287.232C286.532 286.549 287.028 286.021 287.658 285.648C288.298 285.275 289.007 285.088 289.786 285.088C290.554 285.088 291.22 285.253 291.786 285.584C292.351 285.915 292.772 286.331 293.05 286.832V285.232H294.522V294H293.05V292.368C292.762 292.88 292.33 293.307 291.754 293.648C291.188 293.979 290.527 294.144 289.77 294.144C288.991 294.144 288.287 293.952 287.658 293.568C287.028 293.184 286.532 292.645 286.17 291.952C285.807 291.259 285.626 290.469 285.626 289.584ZM293.05 289.6C293.05 288.939 292.916 288.363 292.65 287.872C292.383 287.381 292.02 287.008 291.562 286.752C291.114 286.485 290.618 286.352 290.074 286.352C289.53 286.352 289.034 286.48 288.586 286.736C288.138 286.992 287.78 287.365 287.514 287.856C287.247 288.347 287.114 288.923 287.114 289.584C287.114 290.256 287.247 290.843 287.514 291.344C287.78 291.835 288.138 292.213 288.586 292.48C289.034 292.736 289.53 292.864 290.074 292.864C290.618 292.864 291.114 292.736 291.562 292.48C292.02 292.213 292.383 291.835 292.65 291.344C292.916 290.843 293.05 290.261 293.05 289.6ZM298.438 286.656C298.694 286.155 299.057 285.765 299.526 285.488C300.006 285.211 300.587 285.072 301.27 285.072V286.576H300.886C299.254 286.576 298.438 287.461 298.438 289.232V294H296.982V285.232H298.438V286.656Z" fill="black"/>
<path d="M32.688 355.112C32.688 356.04 32.368 356.813 31.728 357.432C31.0987 358.04 30.1333 358.344 28.832 358.344H26.688V363H25.232V351.848H28.832C30.0907 351.848 31.0453 352.152 31.696 352.76C32.3573 353.368 32.688 354.152 32.688 355.112ZM28.832 357.144C29.6427 357.144 30.24 356.968 30.624 356.616C31.008 356.264 31.2 355.763 31.2 355.112C31.2 353.736 30.4107 353.048 28.832 353.048H26.688V357.144H28.832ZM33.9536 358.584C33.9536 357.688 34.135 356.904 34.4976 356.232C34.8603 355.549 35.3563 355.021 35.9856 354.648C36.6256 354.275 37.335 354.088 38.1136 354.088C38.8816 354.088 39.5483 354.253 40.1136 354.584C40.679 354.915 41.1003 355.331 41.3776 355.832V354.232H42.8496V363H41.3776V361.368C41.0896 361.88 40.6576 362.307 40.0816 362.648C39.5163 362.979 38.855 363.144 38.0976 363.144C37.319 363.144 36.615 362.952 35.9856 362.568C35.3563 362.184 34.8603 361.645 34.4976 360.952C34.135 360.259 33.9536 359.469 33.9536 358.584ZM41.3776 358.6C41.3776 357.939 41.2443 357.363 40.9776 356.872C40.711 356.381 40.3483 356.008 39.8896 355.752C39.4416 355.485 38.9456 355.352 38.4016 355.352C37.8576 355.352 37.3616 355.48 36.9136 355.736C36.4656 355.992 36.1083 356.365 35.8416 356.856C35.575 357.347 35.4416 357.923 35.4416 358.584C35.4416 359.256 35.575 359.843 35.8416 360.344C36.1083 360.835 36.4656 361.213 36.9136 361.48C37.3616 361.736 37.8576 361.864 38.4016 361.864C38.9456 361.864 39.4416 361.736 39.8896 361.48C40.3483 361.213 40.711 360.835 40.9776 360.344C41.2443 359.843 41.3776 359.261 41.3776 358.6ZM52.8621 354.232L47.5821 367.128H46.0781L47.8061 362.904L44.2701 354.232H45.8861L48.6381 361.336L51.3581 354.232H52.8621ZM64.8698 354.072C65.5524 354.072 66.1604 354.216 66.6938 354.504C67.2271 354.781 67.6484 355.203 67.9578 355.768C68.2671 356.333 68.4218 357.021 68.4218 357.832V363H66.9818V358.04C66.9818 357.165 66.7631 356.499 66.3258 356.04C65.8991 355.571 65.3178 355.336 64.5818 355.336C63.8244 355.336 63.2218 355.581 62.7738 356.072C62.3258 356.552 62.1018 357.251 62.1018 358.168V363H60.6618V358.04C60.6618 357.165 60.4431 356.499 60.0058 356.04C59.5791 355.571 58.9978 355.336 58.2618 355.336C57.5044 355.336 56.9018 355.581 56.4538 356.072C56.0058 356.552 55.7818 357.251 55.7818 358.168V363H54.3258V354.232H55.7818V355.496C56.0698 355.037 56.4538 354.685 56.9338 354.44C57.4244 354.195 57.9631 354.072 58.5498 354.072C59.2858 354.072 59.9364 354.237 60.5018 354.568C61.0671 354.899 61.4884 355.384 61.7658 356.024C62.0111 355.405 62.4164 354.925 62.9818 354.584C63.5471 354.243 64.1764 354.072 64.8698 354.072ZM78.8101 358.28C78.8101 358.557 78.7941 358.851 78.7621 359.16H71.7541C71.8075 360.024 72.1008 360.701 72.6341 361.192C73.1781 361.672 73.8341 361.912 74.6021 361.912C75.2315 361.912 75.7541 361.768 76.1701 361.48C76.5968 361.181 76.8955 360.787 77.0661 360.296H78.6341C78.3995 361.139 77.9301 361.827 77.2261 362.36C76.5221 362.883 75.6475 363.144 74.6021 363.144C73.7701 363.144 73.0235 362.957 72.3621 362.584C71.7115 362.211 71.1995 361.683 70.8261 361C70.4528 360.307 70.2661 359.507 70.2661 358.6C70.2661 357.693 70.4475 356.899 70.8101 356.216C71.1728 355.533 71.6795 355.011 72.3301 354.648C72.9915 354.275 73.7488 354.088 74.6021 354.088C75.4341 354.088 76.1701 354.269 76.8101 354.632C77.4501 354.995 77.9408 355.496 78.2821 356.136C78.6341 356.765 78.8101 357.48 78.8101 358.28ZM77.3061 357.976C77.3061 357.421 77.1835 356.947 76.9381 356.552C76.6928 356.147 76.3568 355.843 75.9301 355.64C75.5141 355.427 75.0501 355.32 74.5381 355.32C73.8021 355.32 73.1728 355.555 72.6501 356.024C72.1381 356.493 71.8448 357.144 71.7701 357.976H77.3061ZM85.004 354.072C86.0707 354.072 86.9347 354.397 87.596 355.048C88.2573 355.688 88.588 356.616 88.588 357.832V363H87.148V358.04C87.148 357.165 86.9293 356.499 86.492 356.04C86.0547 355.571 85.4573 355.336 84.7 355.336C83.932 355.336 83.3187 355.576 82.86 356.056C82.412 356.536 82.188 357.235 82.188 358.152V363H80.732V354.232H82.188V355.48C82.476 355.032 82.8653 354.685 83.356 354.44C83.8573 354.195 84.4067 354.072 85.004 354.072ZM92.7424 355.432V360.6C92.7424 361.027 92.833 361.331 93.0144 361.512C93.1957 361.683 93.5104 361.768 93.9584 361.768H95.0304V363H93.7184C92.9077 363 92.2997 362.813 91.8944 362.44C91.489 362.067 91.2864 361.453 91.2864 360.6V355.432H90.1504V354.232H91.2864V352.024H92.7424V354.232H95.0304V355.432H92.7424ZM111.604 354.072C112.287 354.072 112.895 354.216 113.428 354.504C113.961 354.781 114.383 355.203 114.692 355.768C115.001 356.333 115.156 357.021 115.156 357.832V363H113.716V358.04C113.716 357.165 113.497 356.499 113.06 356.04C112.633 355.571 112.052 355.336 111.316 355.336C110.559 355.336 109.956 355.581 109.508 356.072C109.06 356.552 108.836 357.251 108.836 358.168V363H107.396V358.04C107.396 357.165 107.177 356.499 106.74 356.04C106.313 355.571 105.732 355.336 104.996 355.336C104.239 355.336 103.636 355.581 103.188 356.072C102.74 356.552 102.516 357.251 102.516 358.168V363H101.06V354.232H102.516V355.496C102.804 355.037 103.188 354.685 103.668 354.44C104.159 354.195 104.697 354.072 105.284 354.072C106.02 354.072 106.671 354.237 107.236 354.568C107.801 354.899 108.223 355.384 108.5 356.024C108.745 355.405 109.151 354.925 109.716 354.584C110.281 354.243 110.911 354.072 111.604 354.072ZM125.545 358.28C125.545 358.557 125.529 358.851 125.497 359.16H118.489C118.542 360.024 118.835 360.701 119.369 361.192C119.913 361.672 120.569 361.912 121.337 361.912C121.966 361.912 122.489 361.768 122.905 361.48C123.331 361.181 123.63 360.787 123.801 360.296H125.369C125.134 361.139 124.665 361.827 123.961 362.36C123.257 362.883 122.382 363.144 121.337 363.144C120.505 363.144 119.758 362.957 119.097 362.584C118.446 362.211 117.934 361.683 117.561 361C117.187 360.307 117.001 359.507 117.001 358.6C117.001 357.693 117.182 356.899 117.545 356.216C117.907 355.533 118.414 355.011 119.065 354.648C119.726 354.275 120.483 354.088 121.337 354.088C122.169 354.088 122.905 354.269 123.545 354.632C124.185 354.995 124.675 355.496 125.017 356.136C125.369 356.765 125.545 357.48 125.545 358.28ZM124.041 357.976C124.041 357.421 123.918 356.947 123.673 356.552C123.427 356.147 123.091 355.843 122.665 355.64C122.249 355.427 121.785 355.32 121.273 355.32C120.537 355.32 119.907 355.555 119.385 356.024C118.873 356.493 118.579 357.144 118.505 357.976H124.041ZM129.242 355.432V360.6C129.242 361.027 129.333 361.331 129.514 361.512C129.696 361.683 130.01 361.768 130.458 361.768H131.53V363H130.218C129.408 363 128.8 362.813 128.394 362.44C127.989 362.067 127.786 361.453 127.786 360.6V355.432H126.65V354.232H127.786V352.024H129.242V354.232H131.53V355.432H129.242ZM137.647 354.072C138.308 354.072 138.905 354.216 139.439 354.504C139.972 354.781 140.388 355.203 140.687 355.768C140.996 356.333 141.151 357.021 141.151 357.832V363H139.711V358.04C139.711 357.165 139.492 356.499 139.055 356.04C138.617 355.571 138.02 355.336 137.263 355.336C136.495 355.336 135.881 355.576 135.423 356.056C134.975 356.536 134.751 357.235 134.751 358.152V363H133.295V351.16H134.751V355.48C135.039 355.032 135.433 354.685 135.935 354.44C136.447 354.195 137.017 354.072 137.647 354.072ZM147.353 363.144C146.532 363.144 145.785 362.957 145.113 362.584C144.452 362.211 143.929 361.683 143.545 361C143.172 360.307 142.985 359.507 142.985 358.6C142.985 357.704 143.177 356.915 143.561 356.232C143.956 355.539 144.489 355.011 145.161 354.648C145.833 354.275 146.585 354.088 147.417 354.088C148.249 354.088 149.001 354.275 149.673 354.648C150.345 355.011 150.873 355.533 151.257 356.216C151.652 356.899 151.849 357.693 151.849 358.6C151.849 359.507 151.646 360.307 151.241 361C150.846 361.683 150.308 362.211 149.625 362.584C148.942 362.957 148.185 363.144 147.353 363.144ZM147.353 361.864C147.876 361.864 148.366 361.741 148.825 361.496C149.284 361.251 149.652 360.883 149.929 360.392C150.217 359.901 150.361 359.304 150.361 358.6C150.361 357.896 150.222 357.299 149.945 356.808C149.668 356.317 149.305 355.955 148.857 355.72C148.409 355.475 147.924 355.352 147.401 355.352C146.868 355.352 146.377 355.475 145.929 355.72C145.492 355.955 145.14 356.317 144.873 356.808C144.606 357.299 144.473 357.896 144.473 358.6C144.473 359.315 144.601 359.917 144.857 360.408C145.124 360.899 145.476 361.267 145.913 361.512C146.35 361.747 146.83 361.864 147.353 361.864ZM153.219 358.584C153.219 357.688 153.401 356.904 153.763 356.232C154.126 355.549 154.622 355.021 155.251 354.648C155.891 354.275 156.606 354.088 157.395 354.088C158.078 354.088 158.713 354.248 159.299 354.568C159.886 354.877 160.334 355.288 160.643 355.8V351.16H162.115V363H160.643V361.352C160.355 361.875 159.929 362.307 159.363 362.648C158.798 362.979 158.137 363.144 157.379 363.144C156.601 363.144 155.891 362.952 155.251 362.568C154.622 362.184 154.126 361.645 153.763 360.952C153.401 360.259 153.219 359.469 153.219 358.584ZM160.643 358.6C160.643 357.939 160.51 357.363 160.243 356.872C159.977 356.381 159.614 356.008 159.155 355.752C158.707 355.485 158.211 355.352 157.667 355.352C157.123 355.352 156.627 355.48 156.179 355.736C155.731 355.992 155.374 356.365 155.107 356.856C154.841 357.347 154.707 357.923 154.707 358.584C154.707 359.256 154.841 359.843 155.107 360.344C155.374 360.835 155.731 361.213 156.179 361.48C156.627 361.736 157.123 361.864 157.667 361.864C158.211 361.864 158.707 361.736 159.155 361.48C159.614 361.213 159.977 360.835 160.243 360.344C160.51 359.843 160.643 359.261 160.643 358.6Z" fill="black"/>
<g filter="url(#filter0_d_83_125)">
<rect x="56" y="377" width="255" height="159" rx="8" fill="#C4C4C4"/>
<rect x="56.5" y="377.5" width="254" height="158" rx="7.5" stroke="#AAAAAA"/>
</g>
<path d="M70.57 482.4V481.155H73.39V492H72.01V482.4H70.57ZM77.3697 490.905C78.6397 489.885 79.6347 489.05 80.3547 488.4C81.0747 487.74 81.6797 487.055 82.1697 486.345C82.6697 485.625 82.9197 484.92 82.9197 484.23C82.9197 483.58 82.7597 483.07 82.4397 482.7C82.1297 482.32 81.6247 482.13 80.9247 482.13C80.2447 482.13 79.7147 482.345 79.3347 482.775C78.9647 483.195 78.7647 483.76 78.7347 484.47H77.4147C77.4547 483.35 77.7947 482.485 78.4347 481.875C79.0747 481.265 79.8997 480.96 80.9097 480.96C81.9397 480.96 82.7547 481.245 83.3547 481.815C83.9647 482.385 84.2697 483.17 84.2697 484.17C84.2697 485 84.0197 485.81 83.5197 486.6C83.0297 487.38 82.4697 488.07 81.8397 488.67C81.2097 489.26 80.4047 489.95 79.4247 490.74H84.5847V491.88H77.3697V490.905ZM87.9326 483.885C88.0026 482.965 88.3576 482.245 88.9976 481.725C89.6376 481.205 90.4676 480.945 91.4876 480.945C92.1676 480.945 92.7526 481.07 93.2426 481.32C93.7426 481.56 94.1176 481.89 94.3676 482.31C94.6276 482.73 94.7576 483.205 94.7576 483.735C94.7576 484.355 94.5776 484.89 94.2176 485.34C93.8676 485.79 93.4076 486.08 92.8376 486.21V486.285C93.4876 486.445 94.0026 486.76 94.3826 487.23C94.7626 487.7 94.9526 488.315 94.9526 489.075C94.9526 489.645 94.8226 490.16 94.5626 490.62C94.3026 491.07 93.9126 491.425 93.3926 491.685C92.8726 491.945 92.2476 492.075 91.5176 492.075C90.4576 492.075 89.5876 491.8 88.9076 491.25C88.2276 490.69 87.8476 489.9 87.7676 488.88H89.0876C89.1576 489.48 89.4026 489.97 89.8226 490.35C90.2426 490.73 90.8026 490.92 91.5026 490.92C92.2026 490.92 92.7326 490.74 93.0926 490.38C93.4626 490.01 93.6476 489.535 93.6476 488.955C93.6476 488.205 93.3976 487.665 92.8976 487.335C92.3976 487.005 91.6426 486.84 90.6326 486.84H90.2876V485.7H90.6476C91.5676 485.69 92.2626 485.54 92.7326 485.25C93.2026 484.95 93.4376 484.49 93.4376 483.87C93.4376 483.34 93.2626 482.915 92.9126 482.595C92.5726 482.275 92.0826 482.115 91.4426 482.115C90.8226 482.115 90.3226 482.275 89.9426 482.595C89.5626 482.915 89.3376 483.345 89.2676 483.885H87.9326ZM98.2656 489.585V488.55L103.531 481.26H105.166V488.4H106.666V489.585H105.166V492H103.816V489.585H98.2656ZM103.876 482.685L99.8406 488.4H103.876V482.685ZM121.097 489.585V488.55L126.362 481.26H127.997V488.4H129.497V489.585H127.997V492H126.647V489.585H121.097ZM126.707 482.685L122.672 488.4H126.707V482.685ZM139.576 482.34H134.311V485.76C134.541 485.44 134.881 485.18 135.331 484.98C135.781 484.77 136.266 484.665 136.786 484.665C137.616 484.665 138.291 484.84 138.811 485.19C139.331 485.53 139.701 485.975 139.921 486.525C140.151 487.065 140.266 487.64 140.266 488.25C140.266 488.97 140.131 489.615 139.861 490.185C139.591 490.755 139.176 491.205 138.616 491.535C138.066 491.865 137.381 492.03 136.561 492.03C135.511 492.03 134.661 491.76 134.011 491.22C133.361 490.68 132.966 489.96 132.826 489.06H134.161C134.291 489.63 134.566 490.075 134.986 490.395C135.406 490.715 135.936 490.875 136.576 490.875C137.366 490.875 137.961 490.64 138.361 490.17C138.761 489.69 138.961 489.06 138.961 488.28C138.961 487.5 138.761 486.9 138.361 486.48C137.961 486.05 137.371 485.835 136.591 485.835C136.061 485.835 135.596 485.965 135.196 486.225C134.806 486.475 134.521 486.82 134.341 487.26H133.051V481.14H139.576V482.34ZM149.925 483.735C149.705 482.625 149.02 482.07 147.87 482.07C146.98 482.07 146.315 482.415 145.875 483.105C145.435 483.785 145.22 484.91 145.23 486.48C145.46 485.96 145.84 485.555 146.37 485.265C146.91 484.965 147.51 484.815 148.17 484.815C149.2 484.815 150.02 485.135 150.63 485.775C151.25 486.415 151.56 487.3 151.56 488.43C151.56 489.11 151.425 489.72 151.155 490.26C150.895 490.8 150.495 491.23 149.955 491.55C149.425 491.87 148.78 492.03 148.02 492.03C146.99 492.03 146.185 491.8 145.605 491.34C145.025 490.88 144.62 490.245 144.39 489.435C144.16 488.625 144.045 487.625 144.045 486.435C144.045 482.765 145.325 480.93 147.885 480.93C148.865 480.93 149.635 481.195 150.195 481.725C150.755 482.255 151.085 482.925 151.185 483.735H149.925ZM147.885 485.97C147.455 485.97 147.05 486.06 146.67 486.24C146.29 486.41 145.98 486.675 145.74 487.035C145.51 487.385 145.395 487.815 145.395 488.325C145.395 489.085 145.615 489.705 146.055 490.185C146.495 490.655 147.125 490.89 147.945 490.89C148.645 490.89 149.2 490.675 149.61 490.245C150.03 489.805 150.24 489.215 150.24 488.475C150.24 487.695 150.04 487.085 149.64 486.645C149.24 486.195 148.655 485.97 147.885 485.97ZM161.876 482.22L157.706 492H156.326L160.556 482.355H154.766V481.185H161.876V482.22ZM178.768 486.36C178.208 486.14 177.778 485.82 177.478 485.4C177.178 484.98 177.028 484.47 177.028 483.87C177.028 483.33 177.163 482.845 177.433 482.415C177.703 481.975 178.103 481.63 178.633 481.38C179.173 481.12 179.823 480.99 180.583 480.99C181.343 480.99 181.988 481.12 182.518 481.38C183.058 481.63 183.463 481.975 183.733 482.415C184.013 482.845 184.153 483.33 184.153 483.87C184.153 484.45 183.998 484.96 183.688 485.4C183.378 485.83 182.953 486.15 182.413 486.36C183.033 486.55 183.523 486.885 183.883 487.365C184.253 487.835 184.438 488.405 184.438 489.075C184.438 489.725 184.278 490.295 183.958 490.785C183.638 491.265 183.183 491.64 182.593 491.91C182.013 492.17 181.343 492.3 180.583 492.3C179.823 492.3 179.153 492.17 178.573 491.91C178.003 491.64 177.558 491.265 177.238 490.785C176.918 490.295 176.758 489.725 176.758 489.075C176.758 488.405 176.938 487.83 177.298 487.35C177.658 486.87 178.148 486.54 178.768 486.36ZM182.833 484.035C182.833 483.425 182.633 482.955 182.233 482.625C181.833 482.295 181.283 482.13 180.583 482.13C179.893 482.13 179.348 482.295 178.948 482.625C178.548 482.955 178.348 483.43 178.348 484.05C178.348 484.61 178.553 485.06 178.963 485.4C179.383 485.74 179.923 485.91 180.583 485.91C181.253 485.91 181.793 485.74 182.203 485.4C182.623 485.05 182.833 484.595 182.833 484.035ZM180.583 486.96C179.843 486.96 179.238 487.135 178.768 487.485C178.298 487.825 178.063 488.34 178.063 489.03C178.063 489.67 178.288 490.185 178.738 490.575C179.198 490.965 179.813 491.16 180.583 491.16C181.353 491.16 181.963 490.965 182.413 490.575C182.863 490.185 183.088 489.67 183.088 489.03C183.088 488.36 182.858 487.85 182.398 487.5C181.938 487.14 181.333 486.96 180.583 486.96ZM189.806 489.09C189.906 489.66 190.136 490.1 190.496 490.41C190.866 490.72 191.361 490.875 191.981 490.875C192.811 490.875 193.421 490.55 193.811 489.9C194.211 489.25 194.401 488.155 194.381 486.615C194.171 487.065 193.821 487.42 193.331 487.68C192.841 487.93 192.296 488.055 191.696 488.055C191.026 488.055 190.426 487.92 189.896 487.65C189.376 487.37 188.966 486.965 188.666 486.435C188.366 485.905 188.216 485.265 188.216 484.515C188.216 483.445 188.526 482.585 189.146 481.935C189.766 481.275 190.646 480.945 191.786 480.945C193.186 480.945 194.166 481.4 194.726 482.31C195.296 483.22 195.581 484.575 195.581 486.375C195.581 487.635 195.466 488.675 195.236 489.495C195.016 490.315 194.636 490.94 194.096 491.37C193.566 491.8 192.836 492.015 191.906 492.015C190.886 492.015 190.091 491.74 189.521 491.19C188.951 490.64 188.626 489.94 188.546 489.09H189.806ZM191.921 486.9C192.591 486.9 193.141 486.695 193.571 486.285C194.001 485.865 194.216 485.3 194.216 484.59C194.216 483.84 194.006 483.235 193.586 482.775C193.166 482.315 192.576 482.085 191.816 482.085C191.116 482.085 190.556 482.305 190.136 482.745C189.726 483.185 189.521 483.765 189.521 484.485C189.521 485.215 189.726 485.8 190.136 486.24C190.546 486.68 191.141 486.9 191.921 486.9ZM199.299 486.465C199.299 484.745 199.579 483.405 200.139 482.445C200.699 481.475 201.679 480.99 203.079 480.99C204.469 480.99 205.444 481.475 206.004 482.445C206.564 483.405 206.844 484.745 206.844 486.465C206.844 488.215 206.564 489.575 206.004 490.545C205.444 491.515 204.469 492 203.079 492C201.679 492 200.699 491.515 200.139 490.545C199.579 489.575 199.299 488.215 199.299 486.465ZM205.494 486.465C205.494 485.595 205.434 484.86 205.314 484.26C205.204 483.65 204.969 483.16 204.609 482.79C204.259 482.42 203.749 482.235 203.079 482.235C202.399 482.235 201.879 482.42 201.519 482.79C201.169 483.16 200.934 483.65 200.814 484.26C200.704 484.86 200.649 485.595 200.649 486.465C200.649 487.365 200.704 488.12 200.814 488.73C200.934 489.34 201.169 489.83 201.519 490.2C201.879 490.57 202.399 490.755 203.079 490.755C203.749 490.755 204.259 490.57 204.609 490.2C204.969 489.83 205.204 489.34 205.314 488.73C205.434 488.12 205.494 487.365 205.494 486.465ZM210.158 482.4V481.155H212.978V492H211.598V482.4H210.158ZM228.361 482.4V481.155H231.181V492H229.801V482.4H228.361ZM234.995 489.585V488.55L240.26 481.26H241.895V488.4H243.395V489.585H241.895V492H240.545V489.585H234.995ZM240.605 482.685L236.57 488.4H240.605V482.685ZM246.199 482.4V481.155H249.019V492H247.639V482.4H246.199ZM252.834 489.585V488.55L258.099 481.26H259.734V488.4H261.234V489.585H259.734V492H258.384V489.585H252.834ZM258.444 482.685L254.409 488.4H258.444V482.685Z" fill="black"/>
<path d="M75.136 461.636V467.816C75.136 468.504 74.924 469.056 74.5 469.472C74.076 469.88 73.516 470.084 72.82 470.084C72.116 470.084 71.552 469.876 71.128 469.46C70.704 469.036 70.492 468.46 70.492 467.732H71.584C71.592 468.14 71.696 468.472 71.896 468.728C72.104 468.984 72.412 469.112 72.82 469.112C73.228 469.112 73.532 468.992 73.732 468.752C73.932 468.504 74.032 468.192 74.032 467.816V461.636H75.136ZM78.3193 466.688C78.3193 466.016 78.4553 465.428 78.7273 464.924C78.9993 464.412 79.3713 464.016 79.8433 463.736C80.3233 463.456 80.8553 463.316 81.4393 463.316C82.0153 463.316 82.5153 463.44 82.9393 463.688C83.3633 463.936 83.6793 464.248 83.8873 464.624V463.424H84.9913V470H83.8873V468.776C83.6713 469.16 83.3473 469.48 82.9153 469.736C82.4913 469.984 81.9953 470.108 81.4273 470.108C80.8433 470.108 80.3153 469.964 79.8433 469.676C79.3713 469.388 78.9993 468.984 78.7273 468.464C78.4553 467.944 78.3193 467.352 78.3193 466.688ZM83.8873 466.7C83.8873 466.204 83.7873 465.772 83.5873 465.404C83.3873 465.036 83.1153 464.756 82.7713 464.564C82.4353 464.364 82.0633 464.264 81.6553 464.264C81.2473 464.264 80.8753 464.36 80.5393 464.552C80.2033 464.744 79.9353 465.024 79.7353 465.392C79.5353 465.76 79.4353 466.192 79.4353 466.688C79.4353 467.192 79.5353 467.632 79.7353 468.008C79.9353 468.376 80.2033 468.66 80.5393 468.86C80.8753 469.052 81.2473 469.148 81.6553 469.148C82.0633 469.148 82.4353 469.052 82.7713 468.86C83.1153 468.66 83.3873 468.376 83.5873 468.008C83.7873 467.632 83.8873 467.196 83.8873 466.7ZM96.1847 463.304C96.6967 463.304 97.1527 463.412 97.5527 463.628C97.9527 463.836 98.2687 464.152 98.5007 464.576C98.7327 465 98.8487 465.516 98.8487 466.124V470H97.7687V466.28C97.7687 465.624 97.6047 465.124 97.2767 464.78C96.9567 464.428 96.5207 464.252 95.9687 464.252C95.4007 464.252 94.9487 464.436 94.6127 464.804C94.2767 465.164 94.1087 465.688 94.1087 466.376V470H93.0287V466.28C93.0287 465.624 92.8647 465.124 92.5367 464.78C92.2167 464.428 91.7807 464.252 91.2287 464.252C90.6607 464.252 90.2087 464.436 89.8727 464.804C89.5367 465.164 89.3687 465.688 89.3687 466.376V470H88.2767V463.424H89.3687V464.372C89.5847 464.028 89.8727 463.764 90.2327 463.58C90.6007 463.396 91.0047 463.304 91.4447 463.304C91.9967 463.304 92.4847 463.428 92.9087 463.676C93.3327 463.924 93.6487 464.288 93.8567 464.768C94.0407 464.304 94.3447 463.944 94.7687 463.688C95.1927 463.432 95.6647 463.304 96.1847 463.304ZM108.08 466.46C108.08 466.668 108.068 466.888 108.044 467.12H102.788C102.828 467.768 103.048 468.276 103.448 468.644C103.856 469.004 104.348 469.184 104.924 469.184C105.396 469.184 105.788 469.076 106.1 468.86C106.42 468.636 106.644 468.34 106.772 467.972H107.948C107.772 468.604 107.42 469.12 106.892 469.52C106.364 469.912 105.708 470.108 104.924 470.108C104.3 470.108 103.74 469.968 103.244 469.688C102.756 469.408 102.372 469.012 102.092 468.5C101.812 467.98 101.672 467.38 101.672 466.7C101.672 466.02 101.808 465.424 102.08 464.912C102.352 464.4 102.732 464.008 103.22 463.736C103.716 463.456 104.284 463.316 104.924 463.316C105.548 463.316 106.1 463.452 106.58 463.724C107.06 463.996 107.428 464.372 107.684 464.852C107.948 465.324 108.08 465.86 108.08 466.46ZM106.952 466.232C106.952 465.816 106.86 465.46 106.676 465.164C106.492 464.86 106.24 464.632 105.92 464.48C105.608 464.32 105.26 464.24 104.876 464.24C104.324 464.24 103.852 464.416 103.46 464.768C103.076 465.12 102.856 465.608 102.8 466.232H106.952ZM113.289 470.108C112.785 470.108 112.333 470.024 111.933 469.856C111.533 469.68 111.217 469.44 110.985 469.136C110.753 468.824 110.625 468.468 110.601 468.068H111.729C111.761 468.396 111.913 468.664 112.185 468.872C112.465 469.08 112.829 469.184 113.277 469.184C113.693 469.184 114.021 469.092 114.261 468.908C114.501 468.724 114.621 468.492 114.621 468.212C114.621 467.924 114.493 467.712 114.237 467.576C113.981 467.432 113.585 467.292 113.049 467.156C112.561 467.028 112.161 466.9 111.849 466.772C111.545 466.636 111.281 466.44 111.057 466.184C110.841 465.92 110.733 465.576 110.733 465.152C110.733 464.816 110.833 464.508 111.033 464.228C111.233 463.948 111.517 463.728 111.885 463.568C112.253 463.4 112.673 463.316 113.145 463.316C113.873 463.316 114.461 463.5 114.909 463.868C115.357 464.236 115.597 464.74 115.629 465.38H114.537C114.513 465.036 114.373 464.76 114.117 464.552C113.869 464.344 113.533 464.24 113.109 464.24C112.717 464.24 112.405 464.324 112.173 464.492C111.941 464.66 111.825 464.88 111.825 465.152C111.825 465.368 111.893 465.548 112.029 465.692C112.173 465.828 112.349 465.94 112.557 466.028C112.773 466.108 113.069 466.2 113.445 466.304C113.917 466.432 114.301 466.56 114.597 466.688C114.893 466.808 115.145 466.992 115.353 467.24C115.569 467.488 115.681 467.812 115.689 468.212C115.689 468.572 115.589 468.896 115.389 469.184C115.189 469.472 114.905 469.7 114.537 469.868C114.177 470.028 113.761 470.108 113.289 470.108ZM121.875 463.304C122.675 463.304 123.323 463.548 123.819 464.036C124.315 464.516 124.563 465.212 124.563 466.124V470H123.483V466.28C123.483 465.624 123.319 465.124 122.991 464.78C122.663 464.428 122.215 464.252 121.647 464.252C121.071 464.252 120.611 464.432 120.267 464.792C119.931 465.152 119.763 465.676 119.763 466.364V470H118.671V463.424H119.763V464.36C119.979 464.024 120.271 463.764 120.639 463.58C121.015 463.396 121.427 463.304 121.875 463.304ZM133.787 466.46C133.787 466.668 133.775 466.888 133.751 467.12H128.495C128.535 467.768 128.755 468.276 129.155 468.644C129.563 469.004 130.055 469.184 130.631 469.184C131.103 469.184 131.495 469.076 131.807 468.86C132.127 468.636 132.351 468.34 132.479 467.972H133.655C133.479 468.604 133.127 469.12 132.599 469.52C132.071 469.912 131.415 470.108 130.631 470.108C130.007 470.108 129.447 469.968 128.951 469.688C128.463 469.408 128.079 469.012 127.799 468.5C127.519 467.98 127.379 467.38 127.379 466.7C127.379 466.02 127.515 465.424 127.787 464.912C128.059 464.4 128.439 464.008 128.927 463.736C129.423 463.456 129.991 463.316 130.631 463.316C131.255 463.316 131.807 463.452 132.287 463.724C132.767 463.996 133.135 464.372 133.391 464.852C133.655 465.324 133.787 465.86 133.787 466.46ZM132.659 466.232C132.659 465.816 132.567 465.46 132.383 465.164C132.199 464.86 131.947 464.632 131.627 464.48C131.315 464.32 130.967 464.24 130.583 464.24C130.031 464.24 129.559 464.416 129.167 464.768C128.783 465.12 128.563 465.608 128.507 466.232H132.659ZM142.332 463.424L138.372 473.096H137.244L138.54 469.928L135.888 463.424H137.1L139.164 468.752L141.204 463.424H142.332ZM145.218 470.072C145.01 470.072 144.834 470 144.69 469.856C144.546 469.712 144.474 469.536 144.474 469.328C144.474 469.12 144.546 468.944 144.69 468.8C144.834 468.656 145.01 468.584 145.218 468.584C145.418 468.584 145.586 468.656 145.722 468.8C145.866 468.944 145.938 469.12 145.938 469.328C145.938 469.536 145.866 469.712 145.722 469.856C145.586 470 145.418 470.072 145.218 470.072ZM156.121 470.084C155.569 470.084 155.073 469.988 154.633 469.796C154.201 469.596 153.861 469.324 153.613 468.98C153.365 468.628 153.237 468.224 153.229 467.768H154.393C154.433 468.16 154.593 468.492 154.873 468.764C155.161 469.028 155.577 469.16 156.121 469.16C156.641 469.16 157.049 469.032 157.345 468.776C157.649 468.512 157.801 468.176 157.801 467.768C157.801 467.448 157.713 467.188 157.537 466.988C157.361 466.788 157.141 466.636 156.877 466.532C156.613 466.428 156.257 466.316 155.809 466.196C155.257 466.052 154.813 465.908 154.477 465.764C154.149 465.62 153.865 465.396 153.625 465.092C153.393 464.78 153.277 464.364 153.277 463.844C153.277 463.388 153.393 462.984 153.625 462.632C153.857 462.28 154.181 462.008 154.597 461.816C155.021 461.624 155.505 461.528 156.049 461.528C156.833 461.528 157.473 461.724 157.969 462.116C158.473 462.508 158.757 463.028 158.821 463.676H157.621C157.581 463.356 157.413 463.076 157.117 462.836C156.821 462.588 156.429 462.464 155.941 462.464C155.485 462.464 155.113 462.584 154.825 462.824C154.537 463.056 154.393 463.384 154.393 463.808C154.393 464.112 154.477 464.36 154.645 464.552C154.821 464.744 155.033 464.892 155.281 464.996C155.537 465.092 155.893 465.204 156.349 465.332C156.901 465.484 157.345 465.636 157.681 465.788C158.017 465.932 158.305 466.16 158.545 466.472C158.785 466.776 158.905 467.192 158.905 467.72C158.905 468.128 158.797 468.512 158.581 468.872C158.365 469.232 158.045 469.524 157.621 469.748C157.197 469.972 156.697 470.084 156.121 470.084ZM164.82 470.108C164.204 470.108 163.644 469.968 163.14 469.688C162.644 469.408 162.252 469.012 161.964 468.5C161.684 467.98 161.544 467.38 161.544 466.7C161.544 466.028 161.688 465.436 161.976 464.924C162.272 464.404 162.672 464.008 163.176 463.736C163.68 463.456 164.244 463.316 164.868 463.316C165.492 463.316 166.056 463.456 166.56 463.736C167.064 464.008 167.46 464.4 167.748 464.912C168.044 465.424 168.192 466.02 168.192 466.7C168.192 467.38 168.04 467.98 167.736 468.5C167.44 469.012 167.036 469.408 166.524 469.688C166.012 469.968 165.444 470.108 164.82 470.108ZM164.82 469.148C165.212 469.148 165.58 469.056 165.924 468.872C166.268 468.688 166.544 468.412 166.752 468.044C166.968 467.676 167.076 467.228 167.076 466.7C167.076 466.172 166.972 465.724 166.764 465.356C166.556 464.988 166.284 464.716 165.948 464.54C165.612 464.356 165.248 464.264 164.856 464.264C164.456 464.264 164.088 464.356 163.752 464.54C163.424 464.716 163.16 464.988 162.96 465.356C162.76 465.724 162.66 466.172 162.66 466.7C162.66 467.236 162.756 467.688 162.948 468.056C163.148 468.424 163.412 468.7 163.74 468.884C164.068 469.06 164.428 469.148 164.82 469.148ZM174.271 463.304C175.071 463.304 175.719 463.548 176.215 464.036C176.711 464.516 176.959 465.212 176.959 466.124V470H175.879V466.28C175.879 465.624 175.715 465.124 175.387 464.78C175.059 464.428 174.611 464.252 174.043 464.252C173.467 464.252 173.007 464.432 172.663 464.792C172.327 465.152 172.159 465.676 172.159 466.364V470H171.067V463.424H172.159V464.36C172.375 464.024 172.667 463.764 173.035 463.58C173.411 463.396 173.823 463.304 174.271 463.304ZM187.474 470.084C186.922 470.084 186.426 469.988 185.986 469.796C185.554 469.596 185.214 469.324 184.966 468.98C184.718 468.628 184.59 468.224 184.582 467.768H185.746C185.786 468.16 185.946 468.492 186.226 468.764C186.514 469.028 186.93 469.16 187.474 469.16C187.994 469.16 188.402 469.032 188.698 468.776C189.002 468.512 189.154 468.176 189.154 467.768C189.154 467.448 189.066 467.188 188.89 466.988C188.714 466.788 188.494 466.636 188.23 466.532C187.966 466.428 187.61 466.316 187.162 466.196C186.61 466.052 186.166 465.908 185.83 465.764C185.502 465.62 185.218 465.396 184.978 465.092C184.746 464.78 184.63 464.364 184.63 463.844C184.63 463.388 184.746 462.984 184.978 462.632C185.21 462.28 185.534 462.008 185.95 461.816C186.374 461.624 186.858 461.528 187.402 461.528C188.186 461.528 188.826 461.724 189.322 462.116C189.826 462.508 190.11 463.028 190.174 463.676H188.974C188.934 463.356 188.766 463.076 188.47 462.836C188.174 462.588 187.782 462.464 187.294 462.464C186.838 462.464 186.466 462.584 186.178 462.824C185.89 463.056 185.746 463.384 185.746 463.808C185.746 464.112 185.83 464.36 185.998 464.552C186.174 464.744 186.386 464.892 186.634 464.996C186.89 465.092 187.246 465.204 187.702 465.332C188.254 465.484 188.698 465.636 189.034 465.788C189.37 465.932 189.658 466.16 189.898 466.472C190.138 466.776 190.258 467.192 190.258 467.72C190.258 468.128 190.15 468.512 189.934 468.872C189.718 469.232 189.398 469.524 188.974 469.748C188.55 469.972 188.05 470.084 187.474 470.084ZM193.869 462.356C193.661 462.356 193.485 462.284 193.341 462.14C193.197 461.996 193.125 461.82 193.125 461.612C193.125 461.404 193.197 461.228 193.341 461.084C193.485 460.94 193.661 460.868 193.869 460.868C194.069 460.868 194.237 460.94 194.373 461.084C194.517 461.228 194.589 461.404 194.589 461.612C194.589 461.82 194.517 461.996 194.373 462.14C194.237 462.284 194.069 462.356 193.869 462.356ZM194.397 463.424V470H193.305V463.424H194.397ZM198.79 461.12V470H197.698V461.12H198.79ZM204.539 468.992L206.579 463.424H207.743L205.163 470H203.891L201.311 463.424H202.487L204.539 468.992ZM209.85 466.688C209.85 466.016 209.986 465.428 210.258 464.924C210.53 464.412 210.902 464.016 211.374 463.736C211.854 463.456 212.386 463.316 212.97 463.316C213.546 463.316 214.046 463.44 214.47 463.688C214.894 463.936 215.21 464.248 215.418 464.624V463.424H216.522V470H215.418V468.776C215.202 469.16 214.878 469.48 214.446 469.736C214.022 469.984 213.526 470.108 212.958 470.108C212.374 470.108 211.846 469.964 211.374 469.676C210.902 469.388 210.53 468.984 210.258 468.464C209.986 467.944 209.85 467.352 209.85 466.688ZM215.418 466.7C215.418 466.204 215.318 465.772 215.118 465.404C214.918 465.036 214.646 464.756 214.302 464.564C213.966 464.364 213.594 464.264 213.186 464.264C212.778 464.264 212.406 464.36 212.07 464.552C211.734 464.744 211.466 465.024 211.266 465.392C211.066 465.76 210.966 466.192 210.966 466.688C210.966 467.192 211.066 467.632 211.266 468.008C211.466 468.376 211.734 468.66 212.07 468.86C212.406 469.052 212.778 469.148 213.186 469.148C213.594 469.148 213.966 469.052 214.302 468.86C214.646 468.66 214.918 468.376 215.118 468.008C215.318 467.632 215.418 467.196 215.418 466.7Z" fill="black"/>
<circle cx="285.786" cy="402.214" r="12.2143" fill="#E4E4E4"/>
<circle cx="274.214" cy="402.214" r="12.2143" fill="#787878" fill-opacity="0.5"/>
<path d="M100.824 606.52H95.96L95.064 609H93.528L97.56 597.912H99.24L103.256 609H101.72L100.824 606.52ZM100.408 605.336L98.392 599.704L96.376 605.336H100.408ZM112.789 600.232V609H111.333V607.704C111.056 608.152 110.667 608.504 110.165 608.76C109.675 609.005 109.131 609.128 108.533 609.128C107.851 609.128 107.237 608.989 106.693 608.712C106.149 608.424 105.717 607.997 105.397 607.432C105.088 606.867 104.933 606.179 104.933 605.368V600.232H106.373V605.176C106.373 606.04 106.592 606.707 107.029 607.176C107.467 607.635 108.064 607.864 108.821 607.864C109.6 607.864 110.213 607.624 110.661 607.144C111.109 606.664 111.333 605.965 111.333 605.048V600.232H112.789ZM117.024 601.432V606.6C117.024 607.027 117.114 607.331 117.296 607.512C117.477 607.683 117.792 607.768 118.24 607.768H119.312V609H118C117.189 609 116.581 608.813 116.176 608.44C115.77 608.067 115.568 607.453 115.568 606.6V601.432H114.432V600.232H115.568V598.024H117.024V600.232H119.312V601.432H117.024ZM125.428 600.072C126.089 600.072 126.686 600.216 127.22 600.504C127.753 600.781 128.169 601.203 128.468 601.768C128.777 602.333 128.932 603.021 128.932 603.832V609H127.492V604.04C127.492 603.165 127.273 602.499 126.836 602.04C126.398 601.571 125.801 601.336 125.044 601.336C124.276 601.336 123.662 601.576 123.204 602.056C122.756 602.536 122.532 603.235 122.532 604.152V609H121.076V597.16H122.532V601.48C122.82 601.032 123.214 600.685 123.716 600.44C124.228 600.195 124.798 600.072 125.428 600.072ZM135.134 609.144C134.313 609.144 133.566 608.957 132.894 608.584C132.233 608.211 131.71 607.683 131.326 607C130.953 606.307 130.766 605.507 130.766 604.6C130.766 603.704 130.958 602.915 131.342 602.232C131.737 601.539 132.27 601.011 132.942 600.648C133.614 600.275 134.366 600.088 135.198 600.088C136.03 600.088 136.782 600.275 137.454 600.648C138.126 601.011 138.654 601.533 139.038 602.216C139.433 602.899 139.63 603.693 139.63 604.6C139.63 605.507 139.427 606.307 139.022 607C138.627 607.683 138.089 608.211 137.406 608.584C136.723 608.957 135.966 609.144 135.134 609.144ZM135.134 607.864C135.657 607.864 136.147 607.741 136.606 607.496C137.065 607.251 137.433 606.883 137.71 606.392C137.998 605.901 138.142 605.304 138.142 604.6C138.142 603.896 138.003 603.299 137.726 602.808C137.449 602.317 137.086 601.955 136.638 601.72C136.19 601.475 135.705 601.352 135.182 601.352C134.649 601.352 134.158 601.475 133.71 601.72C133.273 601.955 132.921 602.317 132.654 602.808C132.387 603.299 132.254 603.896 132.254 604.6C132.254 605.315 132.382 605.917 132.638 606.408C132.905 606.899 133.257 607.267 133.694 607.512C134.131 607.747 134.611 607.864 135.134 607.864ZM143.001 601.656C143.257 601.155 143.619 600.765 144.089 600.488C144.569 600.211 145.15 600.072 145.833 600.072V601.576H145.449C143.817 601.576 143.001 602.461 143.001 604.232V609H141.545V600.232H143.001V601.656ZM148.265 598.808C147.988 598.808 147.753 598.712 147.561 598.52C147.369 598.328 147.273 598.093 147.273 597.816C147.273 597.539 147.369 597.304 147.561 597.112C147.753 596.92 147.988 596.824 148.265 596.824C148.532 596.824 148.756 596.92 148.937 597.112C149.129 597.304 149.225 597.539 149.225 597.816C149.225 598.093 149.129 598.328 148.937 598.52C148.756 598.712 148.532 598.808 148.265 598.808ZM148.969 600.232V609H147.513V600.232H148.969ZM152.539 607.8H156.843V609H150.875V607.8L155.131 601.416H150.907V600.232H156.811V601.416L152.539 607.8ZM166.732 604.28C166.732 604.557 166.716 604.851 166.684 605.16H159.676C159.729 606.024 160.023 606.701 160.556 607.192C161.1 607.672 161.756 607.912 162.524 607.912C163.153 607.912 163.676 607.768 164.092 607.48C164.519 607.181 164.817 606.787 164.988 606.296H166.556C166.321 607.139 165.852 607.827 165.148 608.36C164.444 608.883 163.569 609.144 162.524 609.144C161.692 609.144 160.945 608.957 160.284 608.584C159.633 608.211 159.121 607.683 158.748 607C158.375 606.307 158.188 605.507 158.188 604.6C158.188 603.693 158.369 602.899 158.732 602.216C159.095 601.533 159.601 601.011 160.252 600.648C160.913 600.275 161.671 600.088 162.524 600.088C163.356 600.088 164.092 600.269 164.732 600.632C165.372 600.995 165.863 601.496 166.204 602.136C166.556 602.765 166.732 603.48 166.732 604.28ZM165.228 603.976C165.228 603.421 165.105 602.947 164.86 602.552C164.615 602.147 164.279 601.843 163.852 601.64C163.436 601.427 162.972 601.32 162.46 601.32C161.724 601.32 161.095 601.555 160.572 602.024C160.06 602.493 159.767 603.144 159.692 603.976H165.228ZM172.376 604.584C172.376 603.688 172.557 602.904 172.92 602.232C173.282 601.549 173.778 601.021 174.408 600.648C175.048 600.275 175.762 600.088 176.552 600.088C177.309 600.088 177.97 600.259 178.536 600.6C179.112 600.931 179.533 601.341 179.8 601.832V600.232H181.272V613.16H179.8V607.384C179.522 607.875 179.096 608.291 178.52 608.632C177.944 608.973 177.272 609.144 176.504 609.144C175.736 609.144 175.037 608.952 174.408 608.568C173.778 608.184 173.282 607.645 172.92 606.952C172.557 606.259 172.376 605.469 172.376 604.584ZM179.8 604.6C179.8 603.939 179.666 603.363 179.4 602.872C179.133 602.381 178.77 602.008 178.312 601.752C177.864 601.485 177.368 601.352 176.824 601.352C176.28 601.352 175.784 601.48 175.336 601.736C174.888 601.992 174.53 602.365 174.264 602.856C173.997 603.347 173.864 603.923 173.864 604.584C173.864 605.256 173.997 605.843 174.264 606.344C174.53 606.835 174.888 607.213 175.336 607.48C175.784 607.736 176.28 607.864 176.824 607.864C177.368 607.864 177.864 607.736 178.312 607.48C178.77 607.213 179.133 606.835 179.4 606.344C179.666 605.843 179.8 605.261 179.8 604.6ZM191.508 600.232V609H190.052V607.704C189.775 608.152 189.385 608.504 188.884 608.76C188.393 609.005 187.849 609.128 187.252 609.128C186.569 609.128 185.956 608.989 185.412 608.712C184.868 608.424 184.436 607.997 184.116 607.432C183.807 606.867 183.652 606.179 183.652 605.368V600.232H185.092V605.176C185.092 606.04 185.311 606.707 185.748 607.176C186.185 607.635 186.783 607.864 187.54 607.864C188.319 607.864 188.932 607.624 189.38 607.144C189.828 606.664 190.052 605.965 190.052 605.048V600.232H191.508ZM194.718 598.808C194.441 598.808 194.206 598.712 194.014 598.52C193.822 598.328 193.726 598.093 193.726 597.816C193.726 597.539 193.822 597.304 194.014 597.112C194.206 596.92 194.441 596.824 194.718 596.824C194.985 596.824 195.209 596.92 195.39 597.112C195.582 597.304 195.678 597.539 195.678 597.816C195.678 598.093 195.582 598.328 195.39 598.52C195.209 598.712 194.985 598.808 194.718 598.808ZM195.422 600.232V609H193.966V600.232H195.422ZM197.36 604.6C197.36 603.693 197.541 602.904 197.904 602.232C198.267 601.549 198.768 601.021 199.408 600.648C200.059 600.275 200.8 600.088 201.632 600.088C202.709 600.088 203.595 600.349 204.288 600.872C204.992 601.395 205.456 602.12 205.68 603.048H204.112C203.963 602.515 203.669 602.093 203.232 601.784C202.805 601.475 202.272 601.32 201.632 601.32C200.8 601.32 200.128 601.608 199.616 602.184C199.104 602.749 198.848 603.555 198.848 604.6C198.848 605.656 199.104 606.472 199.616 607.048C200.128 607.624 200.8 607.912 201.632 607.912C202.272 607.912 202.805 607.763 203.232 607.464C203.659 607.165 203.952 606.739 204.112 606.184H205.68C205.445 607.08 204.976 607.8 204.272 608.344C203.568 608.877 202.688 609.144 201.632 609.144C200.8 609.144 200.059 608.957 199.408 608.584C198.768 608.211 198.267 607.683 197.904 607C197.541 606.317 197.36 605.517 197.36 604.6ZM212.519 609L209.079 605.128V609H207.623V597.16H209.079V604.12L212.455 600.232H214.487L210.359 604.6L214.503 609H212.519ZM219.579 604.584C219.579 603.688 219.76 602.904 220.123 602.232C220.485 601.549 220.981 601.021 221.611 600.648C222.251 600.275 222.965 600.088 223.755 600.088C224.437 600.088 225.072 600.248 225.659 600.568C226.245 600.877 226.693 601.288 227.003 601.8V597.16H228.475V609H227.003V607.352C226.715 607.875 226.288 608.307 225.723 608.648C225.157 608.979 224.496 609.144 223.739 609.144C222.96 609.144 222.251 608.952 221.611 608.568C220.981 608.184 220.485 607.645 220.123 606.952C219.76 606.259 219.579 605.469 219.579 604.584ZM227.003 604.6C227.003 603.939 226.869 603.363 226.603 602.872C226.336 602.381 225.973 602.008 225.515 601.752C225.067 601.485 224.571 601.352 224.027 601.352C223.483 601.352 222.987 601.48 222.539 601.736C222.091 601.992 221.733 602.365 221.467 602.856C221.2 603.347 221.067 603.923 221.067 604.584C221.067 605.256 221.2 605.843 221.467 606.344C221.733 606.835 222.091 607.213 222.539 607.48C222.987 607.736 223.483 607.864 224.027 607.864C224.571 607.864 225.067 607.736 225.515 607.48C225.973 607.213 226.336 606.835 226.603 606.344C226.869 605.843 227.003 605.261 227.003 604.6ZM234.759 609.144C233.938 609.144 233.191 608.957 232.519 608.584C231.858 608.211 231.335 607.683 230.951 607C230.578 606.307 230.391 605.507 230.391 604.6C230.391 603.704 230.583 602.915 230.967 602.232C231.362 601.539 231.895 601.011 232.567 600.648C233.239 600.275 233.991 600.088 234.823 600.088C235.655 600.088 236.407 600.275 237.079 600.648C237.751 601.011 238.279 601.533 238.663 602.216C239.058 602.899 239.255 603.693 239.255 604.6C239.255 605.507 239.052 606.307 238.647 607C238.252 607.683 237.714 608.211 237.031 608.584C236.348 608.957 235.591 609.144 234.759 609.144ZM234.759 607.864C235.282 607.864 235.772 607.741 236.231 607.496C236.69 607.251 237.058 606.883 237.335 606.392C237.623 605.901 237.767 605.304 237.767 604.6C237.767 603.896 237.628 603.299 237.351 602.808C237.074 602.317 236.711 601.955 236.263 601.72C235.815 601.475 235.33 601.352 234.807 601.352C234.274 601.352 233.783 601.475 233.335 601.72C232.898 601.955 232.546 602.317 232.279 602.808C232.012 603.299 231.879 603.896 231.879 604.6C231.879 605.315 232.007 605.917 232.263 606.408C232.53 606.899 232.882 607.267 233.319 607.512C233.756 607.747 234.236 607.864 234.759 607.864ZM245.442 600.072C246.508 600.072 247.372 600.397 248.034 601.048C248.695 601.688 249.026 602.616 249.026 603.832V609H247.586V604.04C247.586 603.165 247.367 602.499 246.93 602.04C246.492 601.571 245.895 601.336 245.138 601.336C244.37 601.336 243.756 601.576 243.298 602.056C242.85 602.536 242.626 603.235 242.626 604.152V609H241.17V600.232H242.626V601.48C242.914 601.032 243.303 600.685 243.794 600.44C244.295 600.195 244.844 600.072 245.442 600.072ZM250.86 604.584C250.86 603.688 251.041 602.904 251.404 602.232C251.767 601.549 252.263 601.021 252.892 600.648C253.532 600.275 254.241 600.088 255.02 600.088C255.788 600.088 256.455 600.253 257.02 600.584C257.585 600.915 258.007 601.331 258.284 601.832V600.232H259.756V609H258.284V607.368C257.996 607.88 257.564 608.307 256.988 608.648C256.423 608.979 255.761 609.144 255.004 609.144C254.225 609.144 253.521 608.952 252.892 608.568C252.263 608.184 251.767 607.645 251.404 606.952C251.041 606.259 250.86 605.469 250.86 604.584ZM258.284 604.6C258.284 603.939 258.151 603.363 257.884 602.872C257.617 602.381 257.255 602.008 256.796 601.752C256.348 601.485 255.852 601.352 255.308 601.352C254.764 601.352 254.268 601.48 253.82 601.736C253.372 601.992 253.015 602.365 252.748 602.856C252.481 603.347 252.348 603.923 252.348 604.584C252.348 605.256 252.481 605.843 252.748 606.344C253.015 606.835 253.372 607.213 253.82 607.48C254.268 607.736 254.764 607.864 255.308 607.864C255.852 607.864 256.348 607.736 256.796 607.48C257.255 607.213 257.617 606.835 257.884 606.344C258.151 605.843 258.284 605.261 258.284 604.6ZM263.992 601.432V606.6C263.992 607.027 264.083 607.331 264.264 607.512C264.446 607.683 264.76 607.768 265.208 607.768H266.28V609H264.968C264.158 609 263.55 608.813 263.144 608.44C262.739 608.067 262.536 607.453 262.536 606.6V601.432H261.4V600.232H262.536V598.024H263.992V600.232H266.28V601.432H263.992ZM268.797 598.808C268.519 598.808 268.285 598.712 268.093 598.52C267.901 598.328 267.805 598.093 267.805 597.816C267.805 597.539 267.901 597.304 268.093 597.112C268.285 596.92 268.519 596.824 268.797 596.824C269.063 596.824 269.287 596.92 269.469 597.112C269.661 597.304 269.757 597.539 269.757 597.816C269.757 598.093 269.661 598.328 269.469 598.52C269.287 598.712 269.063 598.808 268.797 598.808ZM269.501 600.232V609H268.045V600.232H269.501ZM275.806 609.144C274.985 609.144 274.238 608.957 273.566 608.584C272.905 608.211 272.382 607.683 271.998 607C271.625 606.307 271.438 605.507 271.438 604.6C271.438 603.704 271.63 602.915 272.014 602.232C272.409 601.539 272.942 601.011 273.614 600.648C274.286 600.275 275.038 600.088 275.87 600.088C276.702 600.088 277.454 600.275 278.126 600.648C278.798 601.011 279.326 601.533 279.71 602.216C280.105 602.899 280.302 603.693 280.302 604.6C280.302 605.507 280.099 606.307 279.694 607C279.299 607.683 278.761 608.211 278.078 608.584C277.395 608.957 276.638 609.144 275.806 609.144ZM275.806 607.864C276.329 607.864 276.819 607.741 277.278 607.496C277.737 607.251 278.105 606.883 278.382 606.392C278.67 605.901 278.814 605.304 278.814 604.6C278.814 603.896 278.675 603.299 278.398 602.808C278.121 602.317 277.758 601.955 277.31 601.72C276.862 601.475 276.377 601.352 275.854 601.352C275.321 601.352 274.83 601.475 274.382 601.72C273.945 601.955 273.593 602.317 273.326 602.808C273.059 603.299 272.926 603.896 272.926 604.6C272.926 605.315 273.054 605.917 273.31 606.408C273.577 606.899 273.929 607.267 274.366 607.512C274.803 607.747 275.283 607.864 275.806 607.864ZM286.488 600.072C287.555 600.072 288.419 600.397 289.08 601.048C289.742 601.688 290.072 602.616 290.072 603.832V609H288.632V604.04C288.632 603.165 288.414 602.499 287.976 602.04C287.539 601.571 286.942 601.336 286.184 601.336C285.416 601.336 284.803 601.576 284.344 602.056C283.896 602.536 283.672 603.235 283.672 604.152V609H282.216V600.232H283.672V601.48C283.96 601.032 284.35 600.685 284.84 600.44C285.342 600.195 285.891 600.072 286.488 600.072ZM295.555 609.144C294.883 609.144 294.28 609.032 293.747 608.808C293.213 608.573 292.792 608.253 292.483 607.848C292.173 607.432 292.003 606.957 291.971 606.424H293.475C293.517 606.861 293.72 607.219 294.083 607.496C294.456 607.773 294.941 607.912 295.539 607.912C296.093 607.912 296.531 607.789 296.851 607.544C297.171 607.299 297.331 606.989 297.331 606.616C297.331 606.232 297.16 605.949 296.819 605.768C296.477 605.576 295.949 605.389 295.235 605.208C294.584 605.037 294.051 604.867 293.635 604.696C293.229 604.515 292.877 604.253 292.579 603.912C292.291 603.56 292.147 603.101 292.147 602.536C292.147 602.088 292.28 601.677 292.547 601.304C292.813 600.931 293.192 600.637 293.683 600.424C294.173 600.2 294.733 600.088 295.363 600.088C296.333 600.088 297.117 600.333 297.715 600.824C298.312 601.315 298.632 601.987 298.675 602.84H297.219C297.187 602.381 297 602.013 296.659 601.736C296.328 601.459 295.88 601.32 295.315 601.32C294.792 601.32 294.376 601.432 294.067 601.656C293.757 601.88 293.603 602.173 293.603 602.536C293.603 602.824 293.693 603.064 293.875 603.256C294.067 603.437 294.301 603.587 294.579 603.704C294.867 603.811 295.261 603.933 295.763 604.072C296.392 604.243 296.904 604.413 297.299 604.584C297.693 604.744 298.029 604.989 298.307 605.32C298.595 605.651 298.744 606.083 298.755 606.616C298.755 607.096 298.621 607.528 298.355 607.912C298.088 608.296 297.709 608.6 297.219 608.824C296.739 609.037 296.184 609.144 295.555 609.144ZM93.688 628.584C93.688 627.688 93.8693 626.904 94.232 626.232C94.5947 625.549 95.0907 625.021 95.72 624.648C96.36 624.275 97.0693 624.088 97.848 624.088C98.616 624.088 99.2827 624.253 99.848 624.584C100.413 624.915 100.835 625.331 101.112 625.832V624.232H102.584V633H101.112V631.368C100.824 631.88 100.392 632.307 99.816 632.648C99.2507 632.979 98.5893 633.144 97.832 633.144C97.0533 633.144 96.3493 632.952 95.72 632.568C95.0907 632.184 94.5947 631.645 94.232 630.952C93.8693 630.259 93.688 629.469 93.688 628.584ZM101.112 628.6C101.112 627.939 100.979 627.363 100.712 626.872C100.445 626.381 100.083 626.008 99.624 625.752C99.176 625.485 98.68 625.352 98.136 625.352C97.592 625.352 97.096 625.48 96.648 625.736C96.2 625.992 95.8427 626.365 95.576 626.856C95.3093 627.347 95.176 627.923 95.176 628.584C95.176 629.256 95.3093 629.843 95.576 630.344C95.8427 630.835 96.2 631.213 96.648 631.48C97.096 631.736 97.592 631.864 98.136 631.864C98.68 631.864 99.176 631.736 99.624 631.48C100.083 631.213 100.445 630.835 100.712 630.344C100.979 629.843 101.112 629.261 101.112 628.6ZM106.821 625.432V630.6C106.821 631.027 106.911 631.331 107.093 631.512C107.274 631.683 107.589 631.768 108.036 631.768H109.109V633H107.797C106.986 633 106.378 632.813 105.973 632.44C105.567 632.067 105.365 631.453 105.365 630.6V625.432H104.229V624.232H105.365V622.024H106.821V624.232H109.109V625.432H106.821ZM119.49 624.072C120.152 624.072 120.749 624.216 121.282 624.504C121.816 624.781 122.232 625.203 122.53 625.768C122.84 626.333 122.994 627.021 122.994 627.832V633H121.554V628.04C121.554 627.165 121.336 626.499 120.898 626.04C120.461 625.571 119.864 625.336 119.106 625.336C118.338 625.336 117.725 625.576 117.266 626.056C116.818 626.536 116.594 627.235 116.594 628.152V633H115.138V621.16H116.594V625.48C116.882 625.032 117.277 624.685 117.778 624.44C118.29 624.195 118.861 624.072 119.49 624.072ZM129.197 633.144C128.375 633.144 127.629 632.957 126.957 632.584C126.295 632.211 125.773 631.683 125.389 631C125.015 630.307 124.829 629.507 124.829 628.6C124.829 627.704 125.021 626.915 125.405 626.232C125.799 625.539 126.333 625.011 127.005 624.648C127.677 624.275 128.429 624.088 129.261 624.088C130.093 624.088 130.845 624.275 131.517 624.648C132.189 625.011 132.717 625.533 133.101 626.216C133.495 626.899 133.693 627.693 133.693 628.6C133.693 629.507 133.49 630.307 133.085 631C132.69 631.683 132.151 632.211 131.469 632.584C130.786 632.957 130.029 633.144 129.197 633.144ZM129.197 631.864C129.719 631.864 130.21 631.741 130.669 631.496C131.127 631.251 131.495 630.883 131.773 630.392C132.061 629.901 132.205 629.304 132.205 628.6C132.205 627.896 132.066 627.299 131.789 626.808C131.511 626.317 131.149 625.955 130.701 625.72C130.253 625.475 129.767 625.352 129.245 625.352C128.711 625.352 128.221 625.475 127.773 625.72C127.335 625.955 126.983 626.317 126.717 626.808C126.45 627.299 126.317 627.896 126.317 628.6C126.317 629.315 126.445 629.917 126.701 630.408C126.967 630.899 127.319 631.267 127.757 631.512C128.194 631.747 128.674 631.864 129.197 631.864ZM146.151 624.072C146.834 624.072 147.442 624.216 147.975 624.504C148.508 624.781 148.93 625.203 149.239 625.768C149.548 626.333 149.703 627.021 149.703 627.832V633H148.263V628.04C148.263 627.165 148.044 626.499 147.607 626.04C147.18 625.571 146.599 625.336 145.863 625.336C145.106 625.336 144.503 625.581 144.055 626.072C143.607 626.552 143.383 627.251 143.383 628.168V633H141.943V628.04C141.943 627.165 141.724 626.499 141.287 626.04C140.86 625.571 140.279 625.336 139.543 625.336C138.786 625.336 138.183 625.581 137.735 626.072C137.287 626.552 137.063 627.251 137.063 628.168V633H135.607V624.232H137.063V625.496C137.351 625.037 137.735 624.685 138.215 624.44C138.706 624.195 139.244 624.072 139.831 624.072C140.567 624.072 141.218 624.237 141.783 624.568C142.348 624.899 142.77 625.384 143.047 626.024C143.292 625.405 143.698 624.925 144.263 624.584C144.828 624.243 145.458 624.072 146.151 624.072ZM160.091 628.28C160.091 628.557 160.075 628.851 160.043 629.16H153.035C153.089 630.024 153.382 630.701 153.915 631.192C154.459 631.672 155.115 631.912 155.883 631.912C156.513 631.912 157.035 631.768 157.451 631.48C157.878 631.181 158.177 630.787 158.347 630.296H159.915C159.681 631.139 159.211 631.827 158.507 632.36C157.803 632.883 156.929 633.144 155.883 633.144C155.051 633.144 154.305 632.957 153.643 632.584C152.993 632.211 152.481 631.683 152.107 631C151.734 630.307 151.547 629.507 151.547 628.6C151.547 627.693 151.729 626.899 152.091 626.216C152.454 625.533 152.961 625.011 153.611 624.648C154.273 624.275 155.03 624.088 155.883 624.088C156.715 624.088 157.451 624.269 158.091 624.632C158.731 624.995 159.222 625.496 159.563 626.136C159.915 626.765 160.091 627.48 160.091 628.28ZM158.587 627.976C158.587 627.421 158.465 626.947 158.219 626.552C157.974 626.147 157.638 625.843 157.211 625.64C156.795 625.427 156.331 625.32 155.819 625.32C155.083 625.32 154.454 625.555 153.931 626.024C153.419 626.493 153.126 627.144 153.051 627.976H158.587ZM163.469 625.848C163.757 625.347 164.184 624.931 164.749 624.6C165.325 624.259 165.992 624.088 166.749 624.088C167.528 624.088 168.232 624.275 168.861 624.648C169.501 625.021 170.003 625.549 170.365 626.232C170.728 626.904 170.909 627.688 170.909 628.584C170.909 629.469 170.728 630.259 170.365 630.952C170.003 631.645 169.501 632.184 168.861 632.568C168.232 632.952 167.528 633.144 166.749 633.144C166.003 633.144 165.341 632.979 164.765 632.648C164.2 632.307 163.768 631.885 163.469 631.384V637.16H162.013V624.232H163.469V625.848ZM169.421 628.584C169.421 627.923 169.288 627.347 169.021 626.856C168.755 626.365 168.392 625.992 167.933 625.736C167.485 625.48 166.989 625.352 166.445 625.352C165.912 625.352 165.416 625.485 164.957 625.752C164.509 626.008 164.147 626.387 163.869 626.888C163.603 627.379 163.469 627.949 163.469 628.6C163.469 629.261 163.603 629.843 163.869 630.344C164.147 630.835 164.509 631.213 164.957 631.48C165.416 631.736 165.912 631.864 166.445 631.864C166.989 631.864 167.485 631.736 167.933 631.48C168.392 631.213 168.755 630.835 169.021 630.344C169.288 629.843 169.421 629.256 169.421 628.584ZM172.282 628.584C172.282 627.688 172.463 626.904 172.826 626.232C173.188 625.549 173.684 625.021 174.314 624.648C174.954 624.275 175.663 624.088 176.442 624.088C177.21 624.088 177.876 624.253 178.442 624.584C179.007 624.915 179.428 625.331 179.706 625.832V624.232H181.178V633H179.706V631.368C179.418 631.88 178.986 632.307 178.41 632.648C177.844 632.979 177.183 633.144 176.426 633.144C175.647 633.144 174.943 632.952 174.314 632.568C173.684 632.184 173.188 631.645 172.826 630.952C172.463 630.259 172.282 629.469 172.282 628.584ZM179.706 628.6C179.706 627.939 179.572 627.363 179.306 626.872C179.039 626.381 178.676 626.008 178.218 625.752C177.77 625.485 177.274 625.352 176.73 625.352C176.186 625.352 175.69 625.48 175.242 625.736C174.794 625.992 174.436 626.365 174.17 626.856C173.903 627.347 173.77 627.923 173.77 628.584C173.77 629.256 173.903 629.843 174.17 630.344C174.436 630.835 174.794 631.213 175.242 631.48C175.69 631.736 176.186 631.864 176.73 631.864C177.274 631.864 177.77 631.736 178.218 631.48C178.676 631.213 179.039 630.835 179.306 630.344C179.572 629.843 179.706 629.261 179.706 628.6ZM187.254 624.088C188.012 624.088 188.673 624.253 189.238 624.584C189.814 624.915 190.241 625.331 190.518 625.832V624.232H191.99V633.192C191.99 633.992 191.82 634.701 191.478 635.32C191.137 635.949 190.646 636.44 190.006 636.792C189.377 637.144 188.641 637.32 187.798 637.32C186.646 637.32 185.686 637.048 184.918 636.504C184.15 635.96 183.697 635.219 183.558 634.28H184.998C185.158 634.813 185.489 635.24 185.99 635.56C186.492 635.891 187.094 636.056 187.798 636.056C188.598 636.056 189.249 635.805 189.75 635.304C190.262 634.803 190.518 634.099 190.518 633.192V631.352C190.23 631.864 189.804 632.291 189.238 632.632C188.673 632.973 188.012 633.144 187.254 633.144C186.476 633.144 185.766 632.952 185.126 632.568C184.497 632.184 184.001 631.645 183.638 630.952C183.276 630.259 183.094 629.469 183.094 628.584C183.094 627.688 183.276 626.904 183.638 626.232C184.001 625.549 184.497 625.021 185.126 624.648C185.766 624.275 186.476 624.088 187.254 624.088ZM190.518 628.6C190.518 627.939 190.385 627.363 190.118 626.872C189.852 626.381 189.489 626.008 189.03 625.752C188.582 625.485 188.086 625.352 187.542 625.352C186.998 625.352 186.502 625.48 186.054 625.736C185.606 625.992 185.249 626.365 184.982 626.856C184.716 627.347 184.582 627.923 184.582 628.584C184.582 629.256 184.716 629.843 184.982 630.344C185.249 630.835 185.606 631.213 186.054 631.48C186.502 631.736 186.998 631.864 187.542 631.864C188.086 631.864 188.582 631.736 189.03 631.48C189.489 631.213 189.852 630.835 190.118 630.344C190.385 629.843 190.518 629.261 190.518 628.6ZM202.451 628.28C202.451 628.557 202.435 628.851 202.403 629.16H195.395C195.448 630.024 195.741 630.701 196.275 631.192C196.819 631.672 197.475 631.912 198.243 631.912C198.872 631.912 199.395 631.768 199.811 631.48C200.237 631.181 200.536 630.787 200.707 630.296H202.275C202.04 631.139 201.571 631.827 200.867 632.36C200.163 632.883 199.288 633.144 198.243 633.144C197.411 633.144 196.664 632.957 196.003 632.584C195.352 632.211 194.84 631.683 194.467 631C194.093 630.307 193.907 629.507 193.907 628.6C193.907 627.693 194.088 626.899 194.451 626.216C194.813 625.533 195.32 625.011 195.971 624.648C196.632 624.275 197.389 624.088 198.243 624.088C199.075 624.088 199.811 624.269 200.451 624.632C201.091 624.995 201.581 625.496 201.923 626.136C202.275 626.765 202.451 627.48 202.451 628.28ZM200.947 627.976C200.947 627.421 200.824 626.947 200.579 626.552C200.333 626.147 199.997 625.843 199.571 625.64C199.155 625.427 198.691 625.32 198.179 625.32C197.443 625.32 196.813 625.555 196.291 626.024C195.779 626.493 195.485 627.144 195.411 627.976H200.947ZM212.382 635.976C211.358 634.973 210.558 633.699 209.982 632.152C209.417 630.605 209.134 628.936 209.134 627.144C209.134 625.309 209.433 623.597 210.03 622.008C210.638 620.408 211.502 619.091 212.622 618.056H214.142V618.2C212.948 619.32 212.046 620.669 211.438 622.248C210.841 623.816 210.542 625.448 210.542 627.144C210.542 628.797 210.825 630.376 211.39 631.88C211.966 633.384 212.804 634.701 213.902 635.832V635.976H212.382ZM219.728 633.144C218.907 633.144 218.16 632.957 217.488 632.584C216.827 632.211 216.304 631.683 215.92 631C215.547 630.307 215.36 629.507 215.36 628.6C215.36 627.704 215.552 626.915 215.936 626.232C216.331 625.539 216.864 625.011 217.536 624.648C218.208 624.275 218.96 624.088 219.792 624.088C220.624 624.088 221.376 624.275 222.048 624.648C222.72 625.011 223.248 625.533 223.632 626.216C224.027 626.899 224.224 627.693 224.224 628.6C224.224 629.507 224.021 630.307 223.616 631C223.221 631.683 222.683 632.211 222 632.584C221.317 632.957 220.56 633.144 219.728 633.144ZM219.728 631.864C220.251 631.864 220.741 631.741 221.2 631.496C221.659 631.251 222.027 630.883 222.304 630.392C222.592 629.901 222.736 629.304 222.736 628.6C222.736 627.896 222.597 627.299 222.32 626.808C222.043 626.317 221.68 625.955 221.232 625.72C220.784 625.475 220.299 625.352 219.776 625.352C219.243 625.352 218.752 625.475 218.304 625.72C217.867 625.955 217.515 626.317 217.248 626.808C216.981 627.299 216.848 627.896 216.848 628.6C216.848 629.315 216.976 629.917 217.232 630.408C217.499 630.899 217.851 631.267 218.288 631.512C218.725 631.747 219.205 631.864 219.728 631.864ZM227.594 625.848C227.882 625.347 228.309 624.931 228.874 624.6C229.45 624.259 230.117 624.088 230.874 624.088C231.653 624.088 232.357 624.275 232.986 624.648C233.626 625.021 234.128 625.549 234.49 626.232C234.853 626.904 235.034 627.688 235.034 628.584C235.034 629.469 234.853 630.259 234.49 630.952C234.128 631.645 233.626 632.184 232.986 632.568C232.357 632.952 231.653 633.144 230.874 633.144C230.128 633.144 229.466 632.979 228.89 632.648C228.325 632.307 227.893 631.885 227.594 631.384V637.16H226.138V624.232H227.594V625.848ZM233.546 628.584C233.546 627.923 233.413 627.347 233.146 626.856C232.88 626.365 232.517 625.992 232.058 625.736C231.61 625.48 231.114 625.352 230.57 625.352C230.037 625.352 229.541 625.485 229.082 625.752C228.634 626.008 228.272 626.387 227.994 626.888C227.728 627.379 227.594 627.949 227.594 628.6C227.594 629.261 227.728 629.843 227.994 630.344C228.272 630.835 228.634 631.213 229.082 631.48C229.541 631.736 230.037 631.864 230.57 631.864C231.114 631.864 231.61 631.736 232.058 631.48C232.517 631.213 232.88 630.835 233.146 630.344C233.413 629.843 233.546 629.256 233.546 628.584ZM238.727 625.432V630.6C238.727 631.027 238.817 631.331 238.999 631.512C239.18 631.683 239.495 631.768 239.943 631.768H241.015V633H239.703C238.892 633 238.284 632.813 237.879 632.44C237.473 632.067 237.271 631.453 237.271 630.6V625.432H236.135V624.232H237.271V622.024H238.727V624.232H241.015V625.432H238.727ZM243.531 622.808C243.254 622.808 243.019 622.712 242.827 622.52C242.635 622.328 242.539 622.093 242.539 621.816C242.539 621.539 242.635 621.304 242.827 621.112C243.019 620.92 243.254 620.824 243.531 620.824C243.798 620.824 244.022 620.92 244.203 621.112C244.395 621.304 244.491 621.539 244.491 621.816C244.491 622.093 244.395 622.328 244.203 622.52C244.022 622.712 243.798 622.808 243.531 622.808ZM244.235 624.232V633H242.779V624.232H244.235ZM250.54 633.144C249.719 633.144 248.972 632.957 248.3 632.584C247.639 632.211 247.116 631.683 246.732 631C246.359 630.307 246.172 629.507 246.172 628.6C246.172 627.704 246.364 626.915 246.748 626.232C247.143 625.539 247.676 625.011 248.348 624.648C249.02 624.275 249.772 624.088 250.604 624.088C251.436 624.088 252.188 624.275 252.86 624.648C253.532 625.011 254.06 625.533 254.444 626.216C254.839 626.899 255.036 627.693 255.036 628.6C255.036 629.507 254.834 630.307 254.428 631C254.034 631.683 253.495 632.211 252.812 632.584C252.13 632.957 251.372 633.144 250.54 633.144ZM250.54 631.864C251.063 631.864 251.554 631.741 252.012 631.496C252.471 631.251 252.839 630.883 253.116 630.392C253.404 629.901 253.548 629.304 253.548 628.6C253.548 627.896 253.41 627.299 253.132 626.808C252.855 626.317 252.492 625.955 252.044 625.72C251.596 625.475 251.111 625.352 250.588 625.352C250.055 625.352 249.564 625.475 249.116 625.72C248.679 625.955 248.327 626.317 248.06 626.808C247.794 627.299 247.66 627.896 247.66 628.6C247.66 629.315 247.788 629.917 248.044 630.408C248.311 630.899 248.663 631.267 249.1 631.512C249.538 631.747 250.018 631.864 250.54 631.864ZM261.223 624.072C262.289 624.072 263.153 624.397 263.815 625.048C264.476 625.688 264.807 626.616 264.807 627.832V633H263.367V628.04C263.367 627.165 263.148 626.499 262.711 626.04C262.273 625.571 261.676 625.336 260.919 625.336C260.151 625.336 259.537 625.576 259.079 626.056C258.631 626.536 258.407 627.235 258.407 628.152V633H256.951V624.232H258.407V625.48C258.695 625.032 259.084 624.685 259.575 624.44C260.076 624.195 260.625 624.072 261.223 624.072ZM266.641 628.584C266.641 627.688 266.822 626.904 267.185 626.232C267.548 625.549 268.044 625.021 268.673 624.648C269.313 624.275 270.022 624.088 270.801 624.088C271.569 624.088 272.236 624.253 272.801 624.584C273.366 624.915 273.788 625.331 274.065 625.832V624.232H275.537V633H274.065V631.368C273.777 631.88 273.345 632.307 272.769 632.648C272.204 632.979 271.542 633.144 270.785 633.144C270.006 633.144 269.302 632.952 268.673 632.568C268.044 632.184 267.548 631.645 267.185 630.952C266.822 630.259 266.641 629.469 266.641 628.584ZM274.065 628.6C274.065 627.939 273.932 627.363 273.665 626.872C273.398 626.381 273.036 626.008 272.577 625.752C272.129 625.485 271.633 625.352 271.089 625.352C270.545 625.352 270.049 625.48 269.601 625.736C269.153 625.992 268.796 626.365 268.529 626.856C268.262 627.347 268.129 627.923 268.129 628.584C268.129 629.256 268.262 629.843 268.529 630.344C268.796 630.835 269.153 631.213 269.601 631.48C270.049 631.736 270.545 631.864 271.089 631.864C271.633 631.864 272.129 631.736 272.577 631.48C273.036 631.213 273.398 630.835 273.665 630.344C273.932 629.843 274.065 629.261 274.065 628.6ZM279.454 621.16V633H277.998V621.16H279.454ZM281.471 635.976V635.832C282.57 634.701 283.402 633.384 283.967 631.88C284.543 630.376 284.831 628.797 284.831 627.144C284.831 625.448 284.527 623.816 283.919 622.248C283.322 620.669 282.426 619.32 281.231 618.2V618.056H282.751C283.871 619.091 284.73 620.408 285.327 622.008C285.935 623.597 286.239 625.309 286.239 627.144C286.239 628.936 285.951 630.605 285.375 632.152C284.81 633.699 284.015 634.973 282.991 635.976H281.471Z" fill="black"/>
<rect x="56" y="604" width="22" height="22" rx="7" fill="#C4C4C4" stroke="#929292" stroke-width="2"/>
<defs>
<filter id="filter0_d_83_125" x="54" y="377" width="259" height="165" filterUnits="userSpaceOnUse" color-interpolation-filters="sRGB">
<feFlood flood-opacity="0" result="BackgroundImageFix"/>
<feColorMatrix in="SourceAlpha" type="matrix" values="0 0 0 0 0 0 0 0 0 0 0 0 0 0 0 0 0 0 127 0" result="hardAlpha"/>
<feOffset dy="4"/>
<feGaussianBlur stdDeviation="1"/>
<feComposite in2="hardAlpha" operator="out"/>
<feColorMatrix type="matrix" values="0 0 0 0 0 0 0 0 0 0 0 0 0 0 0 0 0 0 0.25 0"/>
<feBlend mode="normal" in2="BackgroundImageFix" result="effect1_dropShadow_83_125"/>
<feBlend mode="normal" in="SourceGraphic" in2="effect1_dropShadow_83_125" result="shape"/>
</filter>
</defs>
</svg>
